<?xml version="1.0" encoding="iso-8859-1"?>
<!-- Generator: Adobe Illustrator 19.1.0, SVG Export Plug-In . SVG Version: 6.00 Build 0)  -->
<svg version="1.1" id="Capa_1" xmlns="http://www.w3.org/2000/svg" xmlns:xlink="http://www.w3.org/1999/xlink" x="0px" y="0px"
	 viewBox="0 0 484.8 484.8" style="enable-background:new 0 0 484.8 484.8;" xml:space="preserve">
<g>
	<g>
		<g>
			<path d="M477.1,419.325c-26.9-22.1-56-36.8-61.9-39.7c-0.7-0.3-1.1-1-1.1-1.7v-42c5.3-3.5,8.8-9.5,8.8-16.3v-43.5
				c0-21.6-17.5-39.2-39.2-39.2H379h-4.7c-21.6,0-39.2,17.5-39.2,39.2v43.5c0,6.8,3.5,12.8,8.8,16.3v42c0,0.3-0.1,0.5-0.1,0.7
				c8.3,5.7,16.9,12,25.3,18.9c9.9,8.1,15.5,20.1,15.5,32.9v35h100.2v-29.8C484.8,429.325,482,423.325,477.1,419.325z"/>
		</g>
		<g>
			<path d="M357.7,411.325c-31.7-26-65.8-43.3-72.8-46.7c-0.8-0.4-1.3-1.2-1.3-2.1v-49.3c6.2-4.1,10.3-11.2,10.3-19.2v-51.1
				c0-25.4-20.6-46.1-46.1-46.1h-5.4h-5.5c-25.4,0-46.1,20.6-46.1,46.1v51.1c0,8,4.1,15.1,10.3,19.2v49.3c0,0.9-0.5,1.7-1.3,2.1
				c-7,3.4-41.1,20.7-72.8,46.7c-5.7,4.7-9,11.7-9,19.1v35h124.4h124.3v-35C366.7,423.025,363.4,416.025,357.7,411.325z"/>
		</g>
		<g>
			<path d="M140.9,377.925v-42c5.3-3.5,8.8-9.5,8.8-16.3v-43.5c0-21.6-17.5-39.2-39.2-39.2h-4.7h-4.7c-21.6,0-39.2,17.5-39.2,39.2
				v43.5c0,6.8,3.5,12.8,8.8,16.3v42c0,0.7-0.4,1.4-1.1,1.7c-5.9,2.9-35,17.6-61.9,39.7c-4.9,4-7.7,10-7.7,16.3v29.8h100.2v-35
				c0-12.8,5.7-24.8,15.5-32.9c8.4-6.9,17-13.3,25.3-18.9C141,378.425,140.9,378.125,140.9,377.925z"/>
		</g>
		<g>
			<path d="M328.7,169.125c-3.4,7.3-9.2,16.3-18.5,20.9c-3.1,1.5-2.4,6.1,1,6.6c10.1,1.6,24.6-0.2,38.1-10.4l0.2,0.2
				c34.4,20.2,79.4,15.6,108.9-13.9c35-35,35-91.8,0-126.9c-35-35-91.8-35-126.9,0c-33.7,33.7-35,87.6-3.8,122.9L328.7,169.125z
				 M366,141.825c0.7-2.7,1.5-5.5,2.4-8.2c1-3.1,1.8-3.5,4.7-2c4.9,2.6,10.2,4,15.7,4.7c3.5,0.4,7,0.1,10.3-1.4
				c6.1-2.7,7.1-9.8,1.9-14c-1.8-1.4-3.8-2.5-5.9-3.4c-5.4-2.4-11-4.2-16-7.2c-8.2-4.9-13.4-11.7-12.8-21.7
				c0.7-11.3,7.1-18.4,17.5-22.2c4.3-1.6,4.3-1.5,4.3-6c0-1.5,0-3,0-4.5c0.1-3.4,0.7-4,4-4c1,0,2.1,0,3.1,0c7.2,0,7.2,0,7.2,7.2
				c0,5.1,0,5.1,5.1,5.9c3.9,0.6,7.5,1.7,11.1,3.3c2,0.9,2.7,2.2,2.1,4.3c-0.9,3.1-1.7,6.2-2.7,9.3c-0.9,2.9-1.9,3.3-4.6,2
				c-5.6-2.7-11.4-3.8-17.6-3.5c-1.6,0.1-3.2,0.3-4.7,1c-5.3,2.3-6.2,8.2-1.7,11.8c2.3,1.8,4.9,3.2,7.6,4.3c4.7,2,9.5,3.8,14,6.3
				c14.3,7.9,18.1,25.8,8.1,38.1c-3.6,4.4-8.4,7.4-13.9,8.9c-2.4,0.7-3.5,1.9-3.4,4.4s0,4.9,0,7.4c0,2.2-1.1,3.4-3.3,3.4
				c-2.6,0.1-5.3,0.1-7.9,0c-2.3,0-3.4-1.4-3.4-3.6c0-1.8,0-3.6,0-5.4c0-4-0.2-4.1-4-4.7c-4.9-0.8-9.7-1.9-14.1-4.1
				C365.3,146.425,365,145.525,366,141.825z"/>
		</g>
	</g>
</g>
<g>
</g>
<g>
</g>
<g>
</g>
<g>
</g>
<g>
</g>
<g>
</g>
<g>
</g>
<g>
</g>
<g>
</g>
<g>
</g>
<g>
</g>
<g>
</g>
<g>
</g>
<g>
</g>
<g>
</g>
</svg>
