<?xml version="1.0" encoding="iso-8859-1"?>
<!-- Generator: Adobe Illustrator 19.1.0, SVG Export Plug-In . SVG Version: 6.00 Build 0)  -->
<svg version="1.1" id="Capa_1" xmlns="http://www.w3.org/2000/svg" xmlns:xlink="http://www.w3.org/1999/xlink" x="0px" y="0px"
	 viewBox="0 0 487.9 487.9" style="enable-background:new 0 0 487.9 487.9;" xml:space="preserve">
<g>
	<g>
		<path d="M328,195.75v-23.7c0-5-2.2-9.8-6.1-12.9c-21.4-17.6-44.5-29.3-49.2-31.6c-0.5-0.3-0.9-0.8-0.9-1.4v-33.3
			c4.2-2.8,7-7.6,7-13v-34.5c0-17.2-13.9-31.1-31.1-31.1h-3.8h-3.7c-17.2,0-31.1,13.9-31.1,31.1v34.6c0,5.4,2.8,10.2,7,13v33.3
			c0,0.6-0.3,1.1-0.9,1.4c-4.7,2.3-27.8,14-49.2,31.6c-3.9,3.2-6.1,7.9-6.1,12.9v23.7h84H328V195.75z"/>
		<path d="M481.8,437.05c-21.4-17.6-44.5-29.3-49.2-31.6c-0.5-0.3-0.9-0.8-0.9-1.4v-33.3c4.2-2.8,7-7.6,7-13v-34.6
			c0-17.2-13.9-31.1-31.1-31.1h-3.7h-3.7c-17.2,0-31.1,13.9-31.1,31.1v34.6c0,5.4,2.8,10.2,7,13v33.3c0,0.6-0.3,1.1-0.9,1.4
			c-4.7,2.3-27.8,14-49.2,31.6c-3.9,3.2-6.1,7.9-6.1,12.9v23.7H404h83.9v-23.7C487.9,445.05,485.7,440.25,481.8,437.05z"/>
		<path d="M161.9,437.05c-21.4-17.6-44.5-29.3-49.2-31.6c-0.5-0.3-0.9-0.8-0.9-1.4v-33.3c4.2-2.8,7-7.6,7-13v-34.6
			c0-17.2-13.9-31.1-31.1-31.1H84h-3.7c-17.2,0-31.1,13.9-31.1,31.1v34.6c0,5.4,2.8,10.2,7,13v33.3c0,0.6-0.3,1.1-0.9,1.4
			c-4.7,2.3-27.8,14-49.2,31.6c-3.9,3.2-6.1,7.9-6.1,12.9v23.7h84.1h84.1v-23.7C168,445.05,165.8,440.25,161.9,437.05z"/>
		<path d="M243.9,240.85c-43.6,0-79,35.4-79,79s35.4,79,79,79s79-35.4,79-79S287.5,240.85,243.9,240.85z M271.5,359.85
			c-2.4,1.1-4.9,2-7.4,2.7c-9.6,2.7-19.3,2.8-28.8-0.4c-11.6-3.8-19.2-11.6-23.8-22.7c-0.9-2.1-1.5-4.4-2.1-6.6h-9.1
			c-1.5,0-2.7-1.2-2.7-2.7v-6.1c0-1.5,1.2-2.7,2.7-2.7h7.5c0-1.7,0-3.3,0-5h-7.5c-1.5,0-2.7-1.2-2.7-2.7v-6.1c0-1.5,1.2-2.7,2.7-2.7
			h9.6l0.3-1c2.6-8.2,7-15.1,13.8-20.4c5.4-4.2,11.7-6.5,18.4-7.6c9.5-1.5,18.7-0.2,27.7,3.3c0.6,0.2,1.1,0.5,1.7,0.8
			c2.1,1.3,2.7,2.9,1.8,5.2c-1,2.4-2,4.8-3.1,7.2c-0.9,2-2.2,2.7-4.4,2.2c-3-0.7-6-1.6-9-2.2c-6.4-1.3-12.7-1.4-18.9,1.1
			c-5.3,2.1-8.6,6.2-10.8,11.2c0,0.1,0,0.1,0,0.2H246c1.5,0,2.7,1.2,2.7,2.7v6.1c0,1.5-1.2,2.7-2.7,2.7h-21.2c0,1.6,0,3.3,0,5H246
			c1.5,0,2.7,1.2,2.7,2.7v6.1c0,1.5-1.2,2.7-2.7,2.7h-19.4c2.3,6.7,6.1,11.9,13.3,14.1c5.7,1.8,11.5,1.7,17.3,0.5
			c3-0.6,5.9-1.5,8.9-2.2c2.3-0.5,3.6,0.1,4.6,2.3c1.1,2.4,2.1,4.9,3.1,7.3C274.3,357.05,273.8,358.85,271.5,359.85z"/>
	</g>
</g>
<g>
</g>
<g>
</g>
<g>
</g>
<g>
</g>
<g>
</g>
<g>
</g>
<g>
</g>
<g>
</g>
<g>
</g>
<g>
</g>
<g>
</g>
<g>
</g>
<g>
</g>
<g>
</g>
<g>
</g>
</svg>
