<?xml version="1.0" encoding="iso-8859-1"?>
<!-- Generator: Adobe Illustrator 19.1.0, SVG Export Plug-In . SVG Version: 6.00 Build 0)  -->
<svg version="1.1" id="Capa_1" xmlns="http://www.w3.org/2000/svg" xmlns:xlink="http://www.w3.org/1999/xlink" x="0px" y="0px"
	 viewBox="0 0 488.775 488.775" style="enable-background:new 0 0 488.775 488.775;" xml:space="preserve">
<g>
	<g>
		<g>
			<path d="M481,422.925c-27.2-22.3-56.5-37.1-62.4-40.1c-0.7-0.3-1.1-1-1.1-1.8v-42.3c5.3-3.5,8.8-9.6,8.8-16.5v-43.9
				c0-21.8-17.7-39.5-39.5-39.5h-4.7h-4.8c-21.8,0-39.5,17.7-39.5,39.5v43.9c0,6.9,3.5,12.9,8.8,16.5v42.3c0,0.3-0.1,0.5-0.1,0.7
				c8.3,5.7,17,12.1,25.5,19.1c9.9,8.2,15.6,20.3,15.6,33.2v35.4h101.1v-30C488.7,433.025,485.9,427.025,481,422.925z"/>
		</g>
		<g>
			<path d="M142,381.125v-42.3c5.3-3.5,8.8-9.6,8.8-16.5v-43.9c0-21.8-17.7-39.5-39.5-39.5h-4.7h-4.7c-21.8,0-39.5,17.7-39.5,39.5
				v43.9c0,6.9,3.5,12.9,8.8,16.5v42.3c0,0.7-0.4,1.4-1.1,1.8c-6,2.9-35.3,17.7-62.4,40.1c-4.9,4-7.7,10.1-7.7,16.4v30h101.1v-35.3
				c0-12.9,5.7-25,15.6-33.2c8.5-7,17.2-13.4,25.5-19.1C142,381.625,142,381.425,142,381.125z"/>
		</g>
		<g>
			<circle cx="398.2" cy="109.825" r="29.3"/>
		</g>
		<g>
			<path d="M331.4,170.525c-3.4,7.4-9.3,16.5-18.6,21.1c-3.1,1.5-2.4,6.1,1,6.6c10.2,1.6,24.8-0.2,38.5-10.5l0.2,0.2
				c34.7,20.4,80,15.7,109.8-14.1c35.3-35.3,35.3-92.6,0-128c-35.3-35.3-92.6-35.3-128,0c-34,34-35.3,88.4-3.8,123.9L331.4,170.525z
				 M330.9,104.025c0.1-3.1,2.7-5.6,5.8-5.6l8.4,0.2c1.5-7.2,4.5-14,8.9-20.2l-5.9-6.1c-2.2-2.3-2.1-5.9,0.2-8.1l6.4-6.1
				c2.3-2.2,5.9-2.1,8.1,0.2l5.9,6.2c6.3-4.1,13.3-6.7,20.5-7.9l0.2-8.6c0.1-3.1,2.7-5.6,5.8-5.6l8.8,0.2c3.1,0.1,5.6,2.7,5.6,5.8
				l-0.2,8.7c7.1,1.5,13.9,4.5,20.1,8.8l6.3-6c2.3-2.2,5.9-2.1,8.1,0.2l6.1,6.4c2.2,2.3,2.1,5.9-0.2,8.1l-6.3,6
				c4.1,6.3,6.8,13.3,8,20.4l8.7,0.2c3.1,0.1,5.6,2.7,5.6,5.8l-0.2,8.8c-0.1,3.1-2.7,5.6-5.8,5.6l-8.6-0.2c-1.5,7.1-4.4,14-8.8,20.2
				l5.9,6.2c2.2,2.3,2.1,5.9-0.2,8.1l-6.4,6.1c-2.3,2.2-5.9,2.1-8.1-0.2l-5.9-6.1c-6.3,4.2-13.4,6.9-20.6,8.1l-0.2,8.4
				c-0.1,3.1-2.7,5.6-5.8,5.6l-8.8-0.2c-3.1-0.1-5.6-2.7-5.6-5.8l0.2-8.4c-7.2-1.5-14.1-4.5-20.3-8.9l-6,5.8
				c-2.3,2.2-5.9,2.1-8.1-0.2l-6.1-6.4c-2.2-2.3-2.1-5.9,0.2-8.1l6-5.8c-4.2-6.4-6.8-13.4-8-20.7l-8.4-0.2c-3.1-0.1-5.6-2.7-5.6-5.8
				L330.9,104.025z"/>
		</g>
		<g>
			<path d="M360.6,414.825c-31.9-26.2-66.4-43.7-73.4-47.1c-0.8-0.4-1.3-1.2-1.3-2.1v-49.7c6.3-4.2,10.4-11.3,10.4-19.3v-51.6
				c0-25.7-20.8-46.5-46.5-46.5h-5.5h-5.5c-25.7,0-46.5,20.8-46.5,46.5v51.6c0,8.1,4.1,15.2,10.4,19.3v49.7c0,0.9-0.5,1.7-1.3,2.1
				c-7,3.4-41.4,20.8-73.4,47.1c-5.8,4.7-9.1,11.8-9.1,19.3v35.3h108.9l10.8-49.3c-21.7-30.3,1.6-31.8,5.7-31.8l0,0l0,0
				c4.1,0,27.4,1.5,5.7,31.8l10.8,49.3h108.9v-35.3C369.7,426.625,366.4,419.525,360.6,414.825z"/>
		</g>
	</g>
</g>
<g>
</g>
<g>
</g>
<g>
</g>
<g>
</g>
<g>
</g>
<g>
</g>
<g>
</g>
<g>
</g>
<g>
</g>
<g>
</g>
<g>
</g>
<g>
</g>
<g>
</g>
<g>
</g>
<g>
</g>
</svg>
