<?xml version="1.0" encoding="iso-8859-1"?>
<!-- Generator: Adobe Illustrator 19.1.0, SVG Export Plug-In . SVG Version: 6.00 Build 0)  -->
<svg version="1.1" id="Capa_1" xmlns="http://www.w3.org/2000/svg" xmlns:xlink="http://www.w3.org/1999/xlink" x="0px" y="0px"
	 viewBox="0 0 492.205 492.205" style="enable-background:new 0 0 492.205 492.205;" xml:space="preserve">
<g>
	<g>
		<g>
			<path d="M488.8,470.553c-12-9.8-24.9-16.4-27.5-17.7c-0.3-0.1-0.5-0.4-0.5-0.8v-18.7c2.3-1.6,3.9-4.2,3.9-7.3v-19.3
				c0-9.6-7.8-17.4-17.4-17.4h-2.1h-2.1c-9.6,0-17.4,7.8-17.4,17.4v19.3c0,3,1.5,5.7,3.9,7.3v18.7c0,0.3-0.2,0.6-0.5,0.8
				c-2.6,1.3-15.5,7.8-27.5,17.7c-2.2,1.8-3.4,4.4-3.4,7.2v13.3h47h47v-13.3C492.3,474.953,491,472.353,488.8,470.553z"/>
		</g>
		<g>
			<path d="M402.7,437.053c2.1-3.3,1.2-7.6-2.1-9.8l-47.9-31.1v-57.1c0-3.9-3.2-7.1-7.1-7.1s-7.1,3.2-7.1,7.1v57.1l-47.9,31.1
				c-3.3,2.1-4.2,6.5-2.1,9.8c1.4,2.1,3.6,3.2,5.9,3.2c1.3,0,2.6-0.4,3.8-1.1l47.3-30.7l47.3,30.7c1.2,0.8,2.5,1.1,3.8,1.1
				C399.1,440.253,401.3,439.153,402.7,437.053z"/>
		</g>
		<g>
			<path d="M328.3,249.753v20.8c0,0.4-0.2,0.7-0.5,0.9c-2.9,1.4-17.3,8.7-30.6,19.7c-2.4,2-3.8,4.9-3.8,8.1v14.7h52.3H398v-14.9
				c0-3.1-1.4-6.1-3.8-8.1c-13.3-11-27.7-18.2-30.6-19.7c-0.3-0.2-0.5-0.5-0.5-0.9v-20.8c2.6-1.7,4.3-4.7,4.3-8.1v-21.5
				c0-10.7-8.7-19.4-19.4-19.4h-2.3h-2.3c-10.7,0-19.4,8.7-19.4,19.4v21.5C324,245.053,325.7,248.053,328.3,249.753z"/>
		</g>
		<g>
			<path d="M246.1,149.153c-3.9,0-7.1,3.2-7.1,7.1v57.1l-47.9,31c-3.3,2.1-4.2,6.5-2.1,9.8c1.4,2.1,3.6,3.2,5.9,3.2
				c1.3,0,2.6-0.4,3.8-1.1l47.3-30.7l47.3,30.7c1.2,0.8,2.5,1.1,3.8,1.1c2.3,0,4.6-1.1,5.9-3.2c2.1-3.3,1.2-7.6-2.1-9.8l-47.9-31.1
				v-57.1C253.2,152.253,250,149.153,246.1,149.153z"/>
		</g>
		<g>
			<path d="M243.3,108.653c-10.6-14.7,0.8-15.4,2.8-15.4l0,0l0,0c2,0,13.3,0.7,2.8,15.4l5.2,23.9H307v-17.2c0-3.6-1.6-7.1-4.4-9.4
				c-15.5-12.7-32.2-21.2-35.6-22.9c-0.4-0.2-0.6-0.6-0.6-1v-24c3-2,5-5.5,5-9.4v-25c0-12.5-10.1-22.5-22.5-22.5h-2.8h-2.7
				c-12.5,0-22.5,10.1-22.5,22.5v25c0,3.9,2,7.4,5,9.4v24.1c0,0.4-0.2,0.8-0.6,1c-3.4,1.7-20.1,10.1-35.6,22.9
				c-2.8,2.3-4.4,5.7-4.4,9.4v17.2h52.8L243.3,108.653z"/>
		</g>
		<g>
			<path d="M289.7,470.553c-12-9.8-24.9-16.4-27.5-17.7c-0.3-0.1-0.5-0.4-0.5-0.8v-18.7c2.3-1.6,3.9-4.2,3.9-7.3v-19.3
				c0-9.6-7.8-17.4-17.4-17.4h-2.1H244c-9.6,0-17.4,7.8-17.4,17.4v19.3c0,3,1.5,5.7,3.9,7.3v18.7c0,0.3-0.2,0.6-0.5,0.8
				c-2.6,1.3-15.5,7.8-27.5,17.7c-2.2,1.8-3.4,4.4-3.4,7.2v13.3h47h47v-13.3C293.1,474.953,291.9,472.353,289.7,470.553z"/>
		</g>
		<g>
			<path d="M203.6,437.053c2.1-3.3,1.2-7.6-2.1-9.8l-47.9-31.1v-57.1c0-3.9-3.2-7.1-7.1-7.1c-3.9,0-7.1,3.2-7.1,7.1v57.1l-47.9,31.1
				c-3.3,2.1-4.2,6.5-2.1,9.8c1.4,2.1,3.6,3.2,5.9,3.2c1.3,0,2.6-0.4,3.8-1.1l47.3-30.7l47.3,30.7c1.2,0.8,2.5,1.1,3.8,1.1
				C200,440.253,202.2,439.153,203.6,437.053z"/>
		</g>
		<g>
			<path d="M90.6,470.553c-12-9.8-24.9-16.4-27.5-17.7c-0.3-0.1-0.5-0.4-0.5-0.8v-18.7c2.3-1.6,3.9-4.2,3.9-7.3v-19.3
				c0-9.6-7.8-17.4-17.4-17.4H47h-2.1c-9.6,0-17.4,7.8-17.4,17.4v19.3c0,3,1.5,5.7,3.9,7.3v18.7c0,0.3-0.2,0.6-0.5,0.8
				c-2.6,1.3-15.5,7.8-27.5,17.7c-2.2,1.8-3.4,4.4-3.4,7.2v13.3h47h47v-13.3C94,474.953,92.8,472.353,90.6,470.553z"/>
		</g>
		<g>
			<path d="M198.9,313.853v-14.8c0-3.1-1.4-6.1-3.8-8.1c-13.3-11-27.7-18.2-30.6-19.7c-0.3-0.2-0.5-0.5-0.5-0.9v-20.8
				c2.6-1.7,4.3-4.7,4.3-8.1v-21.5c0-10.7-8.7-19.4-19.4-19.4h-2.3h-2.3c-10.7,0-19.4,8.7-19.4,19.4v21.5c0,3.4,1.7,6.3,4.3,8.1
				v20.8c0,0.4-0.2,0.7-0.5,0.9c-2.9,1.4-17.3,8.7-30.6,19.7c-2.4,2-3.8,4.9-3.8,8.1v14.7h52.3h52.3V313.853z"/>
		</g>
	</g>
</g>
<g>
</g>
<g>
</g>
<g>
</g>
<g>
</g>
<g>
</g>
<g>
</g>
<g>
</g>
<g>
</g>
<g>
</g>
<g>
</g>
<g>
</g>
<g>
</g>
<g>
</g>
<g>
</g>
<g>
</g>
</svg>
