<?xml version="1.0" encoding="iso-8859-1"?>
<!-- Generator: Adobe Illustrator 19.1.0, SVG Export Plug-In . SVG Version: 6.00 Build 0)  -->
<svg version="1.1" id="Capa_1" xmlns="http://www.w3.org/2000/svg" xmlns:xlink="http://www.w3.org/1999/xlink" x="0px" y="0px"
	 viewBox="0 0 486.8 486.8" style="enable-background:new 0 0 486.8 486.8;" xml:space="preserve">
<g>
	<g>
		<g>
			<path d="M86.648,329.9c6.9,0,12.6-5.6,12.6-12.6v-36.9h131.6v36.9c0,6.9,5.6,12.6,12.6,12.6c6.9,0,12.6-5.6,12.6-12.6v-36.9
				h131.6v36.9c0,6.9,5.6,12.6,12.6,12.6c6.9,0,12.6-5.6,12.6-12.6v-49.5c0-6.9-5.6-12.6-12.6-12.6h-143.9V215
				c0-6.9-5.6-12.6-12.6-12.6c-6.9,0-12.6,5.6-12.6,12.6v40.2h-144.5c-6.9,0-12.6,5.6-12.6,12.6v49.5
				C74.048,324.2,79.748,329.9,86.648,329.9z"/>
		</g>
		<g>
			<path d="M239.548,149.4c-14.6-20.4,1.1-21.4,3.8-21.4l0,0l0,0c2.7,0,18.5,1,3.8,21.4l7.3,33.2h73.4v-23.8c0-5-2.2-9.8-6.1-13
				c-21.5-17.7-44.7-29.4-49.4-31.7c-0.5-0.3-0.9-0.8-0.9-1.4V79.1c4.2-2.8,7-7.6,7-13V31.3c0-17.3-14-31.3-31.3-31.3h-3.8h-3.7
				c-17.3,0-31.3,14-31.3,31.3V66c0,5.4,2.8,10.2,7,13v33.5c0,0.6-0.3,1.1-0.9,1.4c-4.7,2.3-27.9,14-49.4,31.7
				c-3.9,3.2-6.1,8-6.1,13v23.8h73.4L239.548,149.4z"/>
		</g>
		<g>
			<path d="M301.048,459.6c-15.8-13-32.9-21.7-36.4-23.4c-0.4-0.2-0.6-0.6-0.6-1v-24.7c3.1-2.1,5.2-5.6,5.2-9.6v-25.5
				c0-12.7-10.3-23-23-23h-2.9h-2.8c-12.7,0-23,10.3-23,23V401c0,4,2,7.5,5.2,9.6v24.7c0,0.4-0.2,0.8-0.6,1
				c-3.5,1.7-20.6,10.3-36.4,23.4c-2.9,2.4-4.5,5.9-4.5,9.6v17.5h54l5.3-24.4c-10.8-15,0.8-15.8,2.8-15.8l0,0l0,0
				c2,0,13.6,0.7,2.8,15.8l5.3,24.4h54v-17.5C305.548,465.5,303.948,462,301.048,459.6z"/>
		</g>
		<g>
			<path d="M145.448,459.6c-15.8-13-32.9-21.7-36.4-23.4c-0.4-0.2-0.6-0.6-0.6-1v-24.7c3.1-2.1,5.2-5.6,5.2-9.6v-25.5
				c0-12.7-10.3-23-23-23h-2.8h-2.8c-12.7,0-23,10.3-23,23V401c0,4,2,7.5,5.2,9.6v24.7c0,0.4-0.2,0.8-0.6,1
				c-3.5,1.7-20.6,10.3-36.4,23.4c-2.9,2.4-4.5,5.9-4.5,9.6v17.5h54l5.3-24.4c-10.8-15,0.8-15.8,2.8-15.8l0,0l0,0
				c2,0,13.6,0.7,2.8,15.8l5.3,24.4h54v-17.5C149.948,465.5,148.348,462,145.448,459.6z"/>
		</g>
		<g>
			<path d="M456.648,459.6c-15.8-13-32.9-21.7-36.4-23.4c-0.4-0.2-0.6-0.6-0.6-1v-24.7c3.1-2.1,5.1-5.6,5.1-9.6v-25.5
				c0-12.7-10.3-23-23-23h-2.8h-2.8c-12.7,0-23,10.3-23,23V401c0,4,2,7.5,5.2,9.6v24.7c0,0.4-0.2,0.8-0.6,1
				c-3.5,1.7-20.6,10.3-36.4,23.4c-2.9,2.4-4.5,5.9-4.5,9.6v17.5h54l5.3-24.4c-10.8-15,0.8-15.8,2.8-15.8l0,0l0,0
				c2,0,13.6,0.7,2.8,15.8l5.3,24.4h54v-17.5C461.148,465.5,459.548,462,456.648,459.6z"/>
		</g>
	</g>
</g>
<g>
</g>
<g>
</g>
<g>
</g>
<g>
</g>
<g>
</g>
<g>
</g>
<g>
</g>
<g>
</g>
<g>
</g>
<g>
</g>
<g>
</g>
<g>
</g>
<g>
</g>
<g>
</g>
<g>
</g>
</svg>
