<?xml version="1.0" encoding="iso-8859-1"?>
<!-- Generator: Adobe Illustrator 19.1.0, SVG Export Plug-In . SVG Version: 6.00 Build 0)  -->
<svg version="1.1" id="Capa_1" xmlns="http://www.w3.org/2000/svg" xmlns:xlink="http://www.w3.org/1999/xlink" x="0px" y="0px"
	 viewBox="0 0 488.7 488.7" style="enable-background:new 0 0 488.7 488.7;" xml:space="preserve">
<g>
	<g>
		<g>
			<path d="M328.6,196.15v-23.7c0-5-2.2-9.8-6.1-13c-21.4-17.6-44.6-29.3-49.3-31.6c-0.5-0.3-0.9-0.8-0.9-1.4v-33.4
				c4.2-2.8,7-7.6,7-13v-34.6c0-17.2-14-31.2-31.2-31.2h-3.7h-3.7c-17.2,0-31.2,14-31.2,31.2v34.6c0,5.4,2.8,10.2,7,13v33.4
				c0,0.6-0.3,1.1-0.9,1.4c-4.7,2.3-27.8,14-49.3,31.6c-3.9,3.2-6.1,7.9-6.1,13v23.7h84.2H328.6z"/>
		</g>
		<g>
			<path d="M482.6,437.75c-21.4-17.6-44.6-29.3-49.3-31.6c-0.5-0.3-0.9-0.8-0.9-1.4v-33.4c4.2-2.8,7-7.6,7-13v-34.6
				c0-17.2-14-31.2-31.2-31.2h-3.7h-3.7c-17.2,0-31.2,14-31.2,31.2v34.6c0,5.4,2.8,10.2,7,13v33.4c0,0.6-0.3,1.1-0.9,1.4
				c-4.7,2.3-27.8,14-49.3,31.6c-3.9,3.2-6.1,7.9-6.1,13v23.7h84.2h84.2v-23.7C488.7,445.65,486.5,440.95,482.6,437.75z"/>
		</g>
		<g>
			<path d="M162.3,437.75c-21.4-17.6-44.6-29.3-49.3-31.6c-0.5-0.3-0.9-0.8-0.9-1.4v-33.4c4.2-2.8,7-7.6,7-13v-34.6
				c0-17.2-14-31.2-31.2-31.2h-3.7h-3.7c-17.2,0-31.2,14-31.2,31.2v34.6c0,5.4,2.8,10.2,7,13v33.4c0,0.6-0.3,1.1-0.9,1.4
				c-4.7,2.3-27.8,14-49.3,31.6c-3.9,3.2-6.1,7.9-6.1,13v23.7h84.2h84.2v-23.7C168.4,445.65,166.2,440.95,162.3,437.75z"/>
		</g>
		<g>
			<path d="M311.8,309.25h-9.5c-1.5-7.8-4.6-15.3-9.2-22.1l6.7-6.7c2.4-2.4,2.4-6.4,0-8.8l-6.8-6.8c-2.4-2.4-6.4-2.4-8.8,0l-6.7,6.7
				c-6.8-4.6-14.3-7.7-22.1-9.2v-9.5c0-3.4-2.8-6.2-6.2-6.2h-9.6c-3.4,0-6.2,2.8-6.2,6.2v9.4c-7.8,1.5-15.4,4.5-22.2,9.2l-6.6-6.6
				c-2.4-2.4-6.4-2.4-8.8,0l-6.8,6.8c-2.4,2.4-2.4,6.4,0,8.8l6.6,6.6c-4.7,6.8-7.8,14.4-9.3,22.3h-9.2c-3.4,0-6.2,2.8-6.2,6.2v9.6
				c0,3.4,2.8,6.2,6.2,6.2h9.2c1.5,7.9,4.6,15.5,9.3,22.4l-6.4,6.5c-2.4,2.4-2.4,6.4,0,8.8l6.8,6.8c2.4,2.4,6.4,2.4,8.8,0l6.4-6.5
				c6.9,4.7,14.5,7.8,22.4,9.2v9.2c0,3.4,2.8,6.2,6.2,6.2h9.6c3.4,0,6.2-2.8,6.2-6.2v-9.2c7.8-1.5,15.5-4.6,22.3-9.3l6.6,6.6
				c2.4,2.4,6.4,2.4,8.8,0l6.8-6.8c2.4-2.4,2.4-6.4,0-8.8l-6.6-6.6c4.6-6.8,7.7-14.4,9.1-22.2h9.4c3.4,0,6.2-2.8,6.2-6.2v-9.6
				C318.1,312.05,315.3,309.25,311.8,309.25z M267.1,343.05c-12.5,12.5-32.8,12.6-45.4,0c-12.5-12.5-12.6-32.8,0-45.4
				c12.5-12.5,32.8-12.6,45.4,0C279.6,310.15,279.6,330.45,267.1,343.05z"/>
		</g>
	</g>
</g>
<g>
</g>
<g>
</g>
<g>
</g>
<g>
</g>
<g>
</g>
<g>
</g>
<g>
</g>
<g>
</g>
<g>
</g>
<g>
</g>
<g>
</g>
<g>
</g>
<g>
</g>
<g>
</g>
<g>
</g>
</svg>
