<?xml version="1.0" encoding="iso-8859-1"?>
<!-- Generator: Adobe Illustrator 19.1.0, SVG Export Plug-In . SVG Version: 6.00 Build 0)  -->
<svg version="1.1" id="Capa_1" xmlns="http://www.w3.org/2000/svg" xmlns:xlink="http://www.w3.org/1999/xlink" x="0px" y="0px"
	 viewBox="0 0 487.9 487.9" style="enable-background:new 0 0 487.9 487.9;" xml:space="preserve">
<g>
	<g>
		<g>
			<path d="M328,195.75v-23.7c0-5-2.2-9.8-6.1-12.9c-21.4-17.6-44.5-29.3-49.2-31.6c-0.5-0.3-0.9-0.8-0.9-1.4v-33.3
				c4.2-2.8,7-7.6,7-13v-34.5c0-17.2-13.9-31.1-31.1-31.1h-3.8h-3.7c-17.2,0-31.1,13.9-31.1,31.1v34.6c0,5.4,2.8,10.2,7,13v33.3
				c0,0.6-0.3,1.1-0.9,1.4c-4.7,2.3-27.8,14-49.2,31.6c-3.9,3.2-6.1,7.9-6.1,12.9v23.7h84H328V195.75z"/>
		</g>
		<g>
			<path d="M481.8,437.05c-21.4-17.6-44.5-29.3-49.2-31.6c-0.5-0.3-0.9-0.8-0.9-1.4v-33.3c4.2-2.8,7-7.6,7-13v-34.6
				c0-17.2-13.9-31.1-31.1-31.1h-3.7h-3.7c-17.2,0-31.1,13.9-31.1,31.1v34.6c0,5.4,2.8,10.2,7,13v33.3c0,0.6-0.3,1.1-0.9,1.4
				c-4.7,2.3-27.8,14-49.2,31.6c-3.9,3.2-6.1,7.9-6.1,12.9v23.7H404h83.9v-23.7C487.9,445.05,485.7,440.25,481.8,437.05z"/>
		</g>
		<g>
			<path d="M161.9,437.05c-21.4-17.6-44.5-29.3-49.2-31.6c-0.5-0.3-0.9-0.8-0.9-1.4v-33.3c4.2-2.8,7-7.6,7-13v-34.6
				c0-17.2-13.9-31.1-31.1-31.1H84h-3.7c-17.2,0-31.1,13.9-31.1,31.1v34.6c0,5.4,2.8,10.2,7,13v33.3c0,0.6-0.3,1.1-0.9,1.4
				c-4.7,2.3-27.8,14-49.2,31.6c-3.9,3.2-6.1,7.9-6.1,12.9v23.7h84.1h84.1v-23.7C168,445.05,165.8,440.25,161.9,437.05z"/>
		</g>
		<g>
			<path d="M243.9,240.85c-43.6,0-79,35.4-79,79s35.4,79,79,79s79-35.4,79-79S287.5,240.85,243.9,240.85z M266.6,351.05
				c-3.4,4.2-7.9,7-13.2,8.4c-2.3,0.6-3.3,1.8-3.2,4.2c0.1,2.3,0,4.7,0,7c0,2.1-1.1,3.2-3.1,3.2c-2.5,0.1-5,0.1-7.5,0
				c-2.2,0-3.2-1.3-3.3-3.4c0-1.7,0-3.4,0-5.1c0-3.8-0.2-3.9-3.8-4.5c-4.6-0.7-9.2-1.8-13.4-3.8c-3.3-1.6-3.7-2.4-2.7-5.9
				c0.7-2.6,1.4-5.2,2.2-7.8c0.9-3,1.7-3.4,4.5-1.9c4.7,2.4,9.7,3.8,14.9,4.5c3.4,0.4,6.6,0.1,9.8-1.3c5.8-2.5,6.7-9.3,1.8-13.3
				c-1.7-1.4-3.6-2.4-5.6-3.3c-5.1-2.2-10.4-3.9-15.2-6.8c-7.8-4.7-12.8-11.1-12.2-20.6c0.7-10.7,6.7-17.4,16.6-21
				c4.1-1.5,4.1-1.4,4.1-5.7c0-1.4,0-2.9,0-4.3c0.1-3.2,0.6-3.7,3.8-3.8c1,0,2,0,3,0c6.8,0,6.8,0,6.8,6.8c0,4.8,0,4.8,4.8,5.6
				c3.7,0.6,7.2,1.7,10.5,3.1c1.9,0.8,2.6,2.1,2,4.1c-0.9,2.9-1.6,5.9-2.6,8.8c-0.9,2.7-1.8,3.1-4.4,1.9c-5.3-2.6-10.9-3.6-16.7-3.3
				c-1.5,0.1-3,0.3-4.5,0.9c-5.1,2.2-5.9,7.8-1.6,11.2c2.2,1.7,4.7,3,7.3,4.1c4.5,1.9,9,3.6,13.2,6
				C272.5,322.45,276.1,339.45,266.6,351.05z"/>
		</g>
	</g>
</g>
<g>
</g>
<g>
</g>
<g>
</g>
<g>
</g>
<g>
</g>
<g>
</g>
<g>
</g>
<g>
</g>
<g>
</g>
<g>
</g>
<g>
</g>
<g>
</g>
<g>
</g>
<g>
</g>
<g>
</g>
</svg>
