<?xml version="1.0" encoding="iso-8859-1"?>
<!-- Generator: Adobe Illustrator 19.1.0, SVG Export Plug-In . SVG Version: 6.00 Build 0)  -->
<svg version="1.1" id="Capa_1" xmlns="http://www.w3.org/2000/svg" xmlns:xlink="http://www.w3.org/1999/xlink" x="0px" y="0px"
	 viewBox="0 0 488.1 488.1" style="enable-background:new 0 0 488.1 488.1;" xml:space="preserve">
<g>
	<g>
		<g>
			<path d="M474.85,452.5c-20.8-17.1-43.2-28.4-47.8-30.7c-0.5-0.3-0.8-0.8-0.8-1.3v-32.4c4.1-2.7,6.8-7.3,6.8-12.6v-33.6
				c0-16.7-13.5-30.2-30.2-30.2h-3.6h-3.6c-16.7,0-30.2,13.5-30.2,30.2v33.6c0,5.3,2.7,9.9,6.8,12.6v32.4c0,0.6-0.3,1.1-0.8,1.3
				c-4.6,2.2-27,13.6-47.8,30.7c-3.8,3.1-5.9,7.7-5.9,12.6v23h81.6h81.6v-23C480.75,460.2,478.65,455.6,474.85,452.5z"/>
		</g>
		<g>
			<path d="M323.55,399.9c3.6,0,7.1-1.8,9.2-5c3.3-5.1,1.9-11.9-3.2-15.2l-74.7-48.5v-89.1c0-6.1-4.9-11-11-11s-11,4.9-11,11v89.1
				l-74.7,48.5c-5.1,3.3-6.6,10.1-3.2,15.2c2.1,3.2,5.6,5,9.2,5c2.1,0,4.1-0.6,6-1.8l73.8-47.8l73.8,47.8
				C319.45,399.3,321.55,399.9,323.55,399.9z"/>
		</g>
		<g>
			<path d="M239.55,168c-16.5-23,1.2-24.1,4.3-24.1l0,0l0,0c3.1,0,20.8,1.1,4.3,24.1l8.1,37.3h82.5v-26.8c0-5.7-2.5-11-6.9-14.6
				c-24.2-19.9-50.3-33.1-55.6-35.7c-0.6-0.3-1-0.9-1-1.6V88.9c4.7-3.2,7.9-8.5,7.9-14.7v-39c0-19.4-15.7-35.2-35.2-35.2h-4.1h-4.2
				c-19.4,0-35.2,15.7-35.2,35.2v39c0,6.1,3.1,11.5,7.9,14.7v37.7c0,0.7-0.4,1.3-1,1.6c-5.3,2.6-31.4,15.8-55.6,35.7
				c-4.4,3.6-6.9,9-6.9,14.6v26.8h82.5L239.55,168z"/>
		</g>
		<g>
			<path d="M164.25,452.5c-20.8-17.1-43.2-28.4-47.8-30.7c-0.5-0.3-0.8-0.8-0.8-1.3v-32.4c4.1-2.7,6.8-7.3,6.8-12.6v-33.6
				c0-16.7-13.5-30.2-30.2-30.2h-3.6h-3.6c-16.7,0-30.2,13.5-30.2,30.2v33.6c0,5.3,2.7,9.9,6.8,12.6v32.4c0,0.6-0.3,1.1-0.8,1.3
				c-4.6,2.2-27,13.6-47.8,30.7c-3.8,3.1-5.9,7.7-5.9,12.6v23h81.6h81.6v-23C170.15,460.2,168.05,455.6,164.25,452.5z"/>
		</g>
	</g>
</g>
<g>
</g>
<g>
</g>
<g>
</g>
<g>
</g>
<g>
</g>
<g>
</g>
<g>
</g>
<g>
</g>
<g>
</g>
<g>
</g>
<g>
</g>
<g>
</g>
<g>
</g>
<g>
</g>
<g>
</g>
</svg>
