<?xml version="1.0" encoding="iso-8859-1"?>
<!-- Generator: Adobe Illustrator 19.1.0, SVG Export Plug-In . SVG Version: 6.00 Build 0)  -->
<svg version="1.1" id="Capa_1" xmlns="http://www.w3.org/2000/svg" xmlns:xlink="http://www.w3.org/1999/xlink" x="0px" y="0px"
	 viewBox="0 0 488.512 488.512" style="enable-background:new 0 0 488.512 488.512;" xml:space="preserve">
<g>
	<g>
		<g>
			<path d="M328.5,196.056v-23.7c0-5-2.2-9.8-6.1-13c-21.4-17.6-44.5-29.3-49.3-31.6c-0.5-0.3-0.9-0.8-0.9-1.4v-33.4
				c4.2-2.8,7-7.6,7-13v-34.5c0-17.2-14-31.2-31.2-31.2h-3.6h-3.7c-17.2,0-31.2,14-31.2,31.2v34.6c0,5.4,2.8,10.2,7,13v33.4
				c0,0.6-0.3,1.1-0.9,1.4c-4.7,2.3-27.8,14-49.3,31.6c-3.9,3.2-6.1,7.9-6.1,13v23.7h84.2h84.1V196.056z"/>
		</g>
		<g>
			<path d="M482.6,437.556c-21.4-17.6-44.5-29.3-49.3-31.6c-0.5-0.3-0.9-0.8-0.9-1.4v-33.3c4.2-2.8,7-7.6,7-13v-34.6
				c0-17.2-14-31.2-31.2-31.2h-3.7h-3.7c-17.2,0-31.2,14-31.2,31.2v34.6c0,5.4,2.8,10.2,7,13v33.4c0,0.6-0.3,1.1-0.9,1.4
				c-4.7,2.3-27.8,14-49.3,31.6c-3.9,3.2-6.1,7.9-6.1,13v23.6h84.1h84.1v-23.7C488.7,445.556,486.4,440.756,482.6,437.556z"/>
		</g>
		<g>
			<path d="M162.3,437.556c-21.4-17.6-44.5-29.3-49.3-31.6c-0.5-0.3-0.9-0.8-0.9-1.4v-33.3c4.2-2.8,7-7.6,7-13v-34.6
				c0-17.2-14-31.2-31.2-31.2h-3.7h-3.7c-17.2,0-31.2,14-31.2,31.2v34.6c0,5.4,2.8,10.2,7,13v33.4c0,0.6-0.3,1.1-0.9,1.4
				c-4.7,2.3-27.8,14-49.3,31.6c-3.9,3.2-6.1,7.9-6.1,13v23.6h84.1h84.3v-23.7C168.4,445.556,166.2,440.756,162.3,437.556z"/>
		</g>
		<g>
			<path d="M244.4,231.556c-48.9,0-88.6,39.8-88.6,88.6c0,48.9,39.8,88.6,88.6,88.6c48.9,0,88.6-39.8,88.6-88.6
				S293.3,231.556,244.4,231.556z M244.4,390.556c-38.8,0-70.3-31.5-70.3-70.3s31.5-70.3,70.3-70.3s70.3,31.5,70.3,70.3
				C314.7,358.956,283.2,390.556,244.4,390.556z"/>
		</g>
		<g>
			<path d="M259.5,315.256c-4.3-2.4-8.8-4.2-13.3-6c-2.6-1.1-5.1-2.3-7.3-4.1c-4.3-3.5-3.5-9.1,1.6-11.3c1.4-0.6,2.9-0.8,4.5-0.9
				c5.9-0.3,11.5,0.8,16.8,3.3c2.7,1.3,3.5,0.9,4.4-1.9c0.9-2.9,1.7-5.9,2.6-8.8c0.6-2-0.1-3.3-2-4.1c-3.4-1.5-6.9-2.6-10.6-3.2
				c-4.8-0.8-4.8-0.8-4.8-5.6c0-6.8,0-6.8-6.9-6.8c-1,0-2,0-3,0c-3.2,0.1-3.7,0.6-3.8,3.9c0,1.4,0,2.9,0,4.3c0,4.3,0,4.2-4.1,5.7
				c-9.9,3.6-16,10.3-16.7,21.1c-0.6,9.6,4.4,16,12.2,20.7c4.8,2.9,10.2,4.6,15.3,6.9c2,0.9,3.9,1.9,5.6,3.3
				c4.9,4.1,4,10.8-1.8,13.4c-3.1,1.4-6.4,1.7-9.8,1.3c-5.2-0.7-10.2-2-15-4.5c-2.8-1.4-3.6-1.1-4.5,1.9c-0.8,2.6-1.5,5.2-2.2,7.8
				c-1,3.5-0.6,4.3,2.7,6c4.3,2.1,8.8,3.1,13.5,3.9c3.6,0.6,3.8,0.7,3.8,4.5c0,1.7,0,3.4,0,5.1c0,2.2,1.1,3.4,3.3,3.5
				c2.5,0,5.1,0,7.6,0c2.1-0.1,3.1-1.2,3.1-3.3c0-2.3,0.1-4.7,0-7c-0.1-2.4,0.9-3.6,3.2-4.2c5.3-1.4,9.8-4.3,13.3-8.5
				C276.8,339.956,273.1,322.856,259.5,315.256z"/>
		</g>
	</g>
</g>
<g>
</g>
<g>
</g>
<g>
</g>
<g>
</g>
<g>
</g>
<g>
</g>
<g>
</g>
<g>
</g>
<g>
</g>
<g>
</g>
<g>
</g>
<g>
</g>
<g>
</g>
<g>
</g>
<g>
</g>
</svg>
