<?xml version="1.0" encoding="iso-8859-1"?>
<!-- Generator: Adobe Illustrator 19.1.0, SVG Export Plug-In . SVG Version: 6.00 Build 0)  -->
<svg version="1.1" id="Capa_1" xmlns="http://www.w3.org/2000/svg" xmlns:xlink="http://www.w3.org/1999/xlink" x="0px" y="0px"
	 viewBox="0 0 488.513 488.513" style="enable-background:new 0 0 488.513 488.513;" xml:space="preserve">
<g>
	<g>
		<g>
			<path d="M326.6,390.056c3.7,0,7.4-1.8,9.5-5.2c3.4-5.3,1.9-12.3-3.3-15.7l-77.1-50v-91.8c0-6.3-5.1-11.4-11.4-11.4
				c-6.3,0-11.4,5.1-11.4,11.4v91.8l-77.1,50c-5.3,3.4-6.8,10.4-3.3,15.7c2.2,3.4,5.8,5.2,9.5,5.2c2.1,0,4.3-0.6,6.2-1.8l76.1-49.3
				l76.1,49.3C322.4,389.456,324.5,390.056,326.6,390.056z"/>
		</g>
		<g>
			<path d="M240.6,156.256c-14.6-20.4,1.1-21.3,3.8-21.4l0,0l0,0c2.7,0,18.4,1,3.8,21.4l7.2,33.1h73.1v-23.7c0-5-2.2-9.8-6.1-13
				c-21.4-17.6-44.6-29.3-49.3-31.6c-0.5-0.3-0.9-0.8-0.9-1.4v-33.3c4.2-2.8,7-7.6,7-13v-34.6c0-17.2-14-31.2-31.2-31.2h-3.6h-3.7
				c-17.2,0-31.2,14-31.2,31.2v34.6c0,5.4,2.8,10.2,7,13v33.4c0,0.6-0.3,1.1-0.9,1.4c-4.7,2.3-27.8,14-49.3,31.6
				c-3.9,3.2-6.1,7.9-6.1,13v23.7h73.1L240.6,156.256z"/>
		</g>
		<g>
			<path d="M482.6,444.256c-21.4-17.6-44.6-29.3-49.3-31.6c-0.5-0.3-0.9-0.8-0.9-1.4v-33.4c4.2-2.8,7-7.6,7-13v-34.6
				c0-17.2-14-31.2-31.2-31.2h-3.7h-3.7c-17.2,0-31.2,14-31.2,31.2v34.6c0,5.4,2.8,10.2,7,13v33.4c0,0.6-0.3,1.1-0.9,1.4
				c-4.7,2.3-27.8,14-49.3,31.6c-3.9,3.2-6.1,7.9-6.1,13v23.7h73.1l7.2-33.1c-14.6-20.4,1.1-21.3,3.8-21.4l0,0l0,0
				c2.7,0,18.4,1,3.8,21.4l7.2,33.1h73.1v-23.7C488.7,452.256,486.5,447.456,482.6,444.256z"/>
		</g>
		<g>
			<path d="M162.3,444.256c-21.4-17.6-44.6-29.3-49.3-31.6c-0.5-0.3-0.9-0.8-0.9-1.4v-33.4c4.2-2.8,7-7.6,7-13v-34.6
				c0-17.2-14-31.2-31.2-31.2h-3.7h-3.7c-17.2,0-31.2,14-31.2,31.2v34.6c0,5.4,2.8,10.2,7,13v33.4c0,0.6-0.3,1.1-0.9,1.4
				c-4.7,2.3-27.8,14-49.3,31.6c-3.9,3.2-6.1,7.9-6.1,13v23.7h73.1l7.2-33.1c-14.6-20.4,1.1-21.3,3.8-21.4l0,0l0,0
				c2.7,0,18.4,1,3.8,21.4l7.2,33.1h73.3v-23.7C168.4,452.256,166.2,447.456,162.3,444.256z"/>
		</g>
	</g>
</g>
<g>
</g>
<g>
</g>
<g>
</g>
<g>
</g>
<g>
</g>
<g>
</g>
<g>
</g>
<g>
</g>
<g>
</g>
<g>
</g>
<g>
</g>
<g>
</g>
<g>
</g>
<g>
</g>
<g>
</g>
</svg>
