<?xml version="1.0" encoding="iso-8859-1"?>
<!-- Generator: Adobe Illustrator 19.1.0, SVG Export Plug-In . SVG Version: 6.00 Build 0)  -->
<svg version="1.1" id="Capa_1" xmlns="http://www.w3.org/2000/svg" xmlns:xlink="http://www.w3.org/1999/xlink" x="0px" y="0px"
	 viewBox="0 0 488.513 488.513" style="enable-background:new 0 0 488.513 488.513;" xml:space="preserve">
<g>
	<g>
		<g>
			<path d="M240.6,162.956c-14.6-20.4,1.1-21.3,3.8-21.4l0,0l0,0c2.7,0,18.4,1,3.8,21.4l7.2,33.1h73.1v-23.7c0-5-2.2-9.8-6.1-13
				c-21.4-17.6-44.6-29.3-49.3-31.6c-0.5-0.3-0.9-0.8-0.9-1.4v-33.4c4.2-2.8,7-7.6,7-13v-34.6c0-17.2-14-31.2-31.2-31.2h-3.6h-3.7
				c-17.2,0-31.2,14-31.2,31.2v34.6c0,5.4,2.8,10.2,7,13v33.4c0,0.6-0.3,1.1-0.9,1.4c-4.7,2.3-27.8,14-49.3,31.6
				c-3.9,3.2-6.1,7.9-6.1,13v23.7h73.1L240.6,162.956z"/>
		</g>
		<g>
			<path d="M482.6,437.656c-21.4-17.6-44.6-29.3-49.3-31.6c-0.5-0.3-0.9-0.8-0.9-1.4v-33.4c4.2-2.8,7-7.6,7-13v-34.6
				c0-17.2-14-31.2-31.2-31.2h-3.7h-3.7c-17.2,0-31.2,14-31.2,31.2v34.6c0,5.4,2.8,10.2,7,13v33.4c0,0.6-0.3,1.1-0.9,1.4
				c-4.7,2.3-27.8,14-49.3,31.6c-3.9,3.2-6.1,7.9-6.1,13v23.7h73.1l7.2-33.1c-14.6-20.4,1.1-21.3,3.8-21.4l0,0l0,0
				c2.7,0,18.4,1,3.8,21.4l7.2,33.1h73.1v-23.7C488.7,445.556,486.5,440.856,482.6,437.656z"/>
		</g>
		<g>
			<path d="M162.3,437.656c-21.4-17.6-44.6-29.3-49.3-31.6c-0.5-0.3-0.9-0.8-0.9-1.4v-33.4c4.2-2.8,7-7.6,7-13v-34.6
				c0-17.2-14-31.2-31.2-31.2h-3.7h-3.7c-17.2,0-31.2,14-31.2,31.2v34.6c0,5.4,2.8,10.2,7,13v33.4c0,0.6-0.3,1.1-0.9,1.4
				c-4.7,2.3-27.8,14-49.3,31.6c-3.9,3.2-6.1,7.9-6.1,13v23.7h73.1l7.3-33.1c-14.6-20.4,1.1-21.3,3.8-21.4l0,0l0,0
				c2.7,0,18.4,1,3.8,21.4l7.2,33.1h73.2v-23.7C168.4,445.556,166.2,440.856,162.3,437.656z"/>
		</g>
		<g>
			<path d="M244.4,241.156c-43.7,0-79.1,35.4-79.1,79.1s35.4,79.1,79.1,79.1s79.1-35.4,79.1-79.1S288.1,241.156,244.4,241.156z
				 M272,360.356c-2.4,1.1-4.9,2-7.4,2.7c-9.6,2.7-19.3,2.8-28.9-0.4c-11.6-3.8-19.3-11.6-23.9-22.7c-0.9-2.1-1.5-4.4-2.1-6.6h-9.1
				c-1.5,0-2.7-1.2-2.7-2.7v-6.1c0-1.5,1.2-2.7,2.7-2.7h7.5c0-1.7,0-3.3,0-5h-7.5c-1.5,0-2.7-1.2-2.7-2.7v-6.1
				c0-1.5,1.2-2.7,2.7-2.7h9.6l0.3-1c2.6-8.2,7-15.2,13.8-20.4c5.4-4.2,11.7-6.5,18.4-7.6c9.5-1.5,18.8-0.2,27.7,3.3
				c0.6,0.2,1.1,0.5,1.7,0.8c2.1,1.3,2.7,2.9,1.8,5.2c-1,2.4-2,4.8-3.1,7.2c-0.9,2.1-2.2,2.7-4.4,2.2c-3-0.7-6-1.6-9-2.2
				c-6.4-1.3-12.7-1.4-18.9,1.1c-5.3,2.1-8.6,6.2-10.8,11.3c0,0.1,0,0.1,0,0.2h18.6c1.5,0,2.7,1.2,2.7,2.7v6.1
				c0,1.5-1.2,2.7-2.7,2.7H225c0,1.6,0,3.3,0,5h21.3c1.5,0,2.7,1.2,2.7,2.7v6.1c0,1.5-1.2,2.7-2.7,2.7h-19.4
				c2.3,6.7,6.2,11.9,13.3,14.1c5.7,1.8,11.5,1.7,17.3,0.5c3-0.6,5.9-1.5,8.9-2.2c2.3-0.5,3.6,0.1,4.6,2.3c1.1,2.4,2.1,4.9,3.1,7.3
				C274.9,357.556,274.3,359.256,272,360.356z"/>
		</g>
	</g>
</g>
<g>
</g>
<g>
</g>
<g>
</g>
<g>
</g>
<g>
</g>
<g>
</g>
<g>
</g>
<g>
</g>
<g>
</g>
<g>
</g>
<g>
</g>
<g>
</g>
<g>
</g>
<g>
</g>
<g>
</g>
</svg>
