<?xml version="1.0" encoding="iso-8859-1"?>
<!-- Generator: Adobe Illustrator 19.1.0, SVG Export Plug-In . SVG Version: 6.00 Build 0)  -->
<svg version="1.1" id="Capa_1" xmlns="http://www.w3.org/2000/svg" xmlns:xlink="http://www.w3.org/1999/xlink" x="0px" y="0px"
	 viewBox="0 0 487.9 487.9" style="enable-background:new 0 0 487.9 487.9;" xml:space="preserve">
<g>
	<g>
		<path d="M240.1,162.75c-14.6-20.3,1.1-21.3,3.8-21.3l0,0l0,0c2.7,0,18.4,1,3.8,21.3l7.2,33h73v-23.7c0-5-2.2-9.8-6.1-12.9
			c-21.4-17.6-44.5-29.3-49.2-31.6c-0.5-0.3-0.9-0.8-0.9-1.4v-33.3c4.2-2.8,7-7.6,7-13v-34.5c0-17.2-13.9-31.1-31.1-31.1h-3.7h-3.7
			c-17.2,0-31.1,13.9-31.1,31.1v34.6c0,5.4,2.8,10.2,7,13v33.3c0,0.6-0.3,1.1-0.9,1.4c-4.7,2.3-27.8,14-49.2,31.6
			c-3.9,3.2-6.1,7.9-6.1,12.9v23.7h73L240.1,162.75z"/>
		<path d="M481.8,437.05c-21.4-17.6-44.5-29.3-49.2-31.6c-0.5-0.3-0.9-0.8-0.9-1.4v-33.3c4.2-2.8,7-7.6,7-13v-34.6
			c0-17.2-13.9-31.1-31.1-31.1h-3.7h-3.7c-17.2,0-31.1,13.9-31.1,31.1v34.6c0,5.4,2.8,10.2,7,13v33.3c0,0.6-0.3,1.1-0.9,1.4
			c-4.7,2.3-27.8,14-49.2,31.6c-3.9,3.2-6.1,7.9-6.1,12.9v23.7h73l7.2-33c-14.6-20.3,1.1-21.3,3.8-21.3l0,0l0,0
			c2.7,0,18.4,1,3.8,21.3l7.2,33h73v-23.7C487.9,445.05,485.7,440.25,481.8,437.05z"/>
		<path d="M161.9,437.05c-21.4-17.6-44.5-29.3-49.2-31.6c-0.5-0.3-0.9-0.8-0.9-1.4v-33.3c4.2-2.8,7-7.6,7-13v-34.6
			c0-17.2-13.9-31.1-31.1-31.1H84h-3.7c-17.2,0-31.1,13.9-31.1,31.1v34.6c0,5.4,2.8,10.2,7,13v33.3c0,0.6-0.3,1.1-0.9,1.4
			c-4.7,2.3-27.8,14-49.2,31.6c-3.9,3.2-6.1,7.9-6.1,12.9v23.7h73l7.2-33c-14.6-20.3,1.1-21.3,3.8-21.3l0,0l0,0
			c2.7,0,18.4,1,3.8,21.3l7.2,33h73v-23.7C168,445.05,165.8,440.25,161.9,437.05z"/>
		<path d="M243.9,231.25c-48.8,0-88.5,39.7-88.5,88.5s39.7,88.5,88.5,88.5s88.5-39.7,88.5-88.5S292.7,231.25,243.9,231.25z
			 M243.9,390.05c-38.7,0-70.2-31.5-70.2-70.2s31.5-70.2,70.2-70.2s70.2,31.5,70.2,70.2S282.6,390.05,243.9,390.05z"/>
		<path d="M259,314.85c-4.3-2.4-8.8-4.2-13.3-6c-2.6-1.1-5.1-2.3-7.3-4.1c-4.3-3.5-3.5-9.1,1.6-11.3c1.4-0.6,2.9-0.8,4.5-0.9
			c5.9-0.3,11.5,0.8,16.8,3.3c2.6,1.3,3.5,0.9,4.4-1.9c0.9-2.9,1.7-5.9,2.6-8.8c0.6-2-0.1-3.3-2-4.1c-3.4-1.5-6.9-2.6-10.6-3.2
			c-4.8-0.8-4.8-0.8-4.8-5.6c0-6.8,0-6.8-6.8-6.8c-1,0-2,0-3,0c-3.2,0.1-3.7,0.6-3.8,3.9c0,1.4,0,2.9,0,4.3c0,4.3,0,4.2-4.1,5.7
			c-9.9,3.6-16,10.3-16.6,21.1c-0.6,9.5,4.4,16,12.2,20.7c4.8,2.9,10.2,4.6,15.3,6.9c2,0.9,3.9,1.9,5.6,3.3c4.9,4.1,4,10.8-1.8,13.4
			c-3.1,1.4-6.4,1.7-9.8,1.3c-5.2-0.7-10.2-2-14.9-4.5c-2.8-1.4-3.6-1.1-4.5,1.9c-0.8,2.6-1.5,5.2-2.2,7.8c-1,3.5-0.6,4.3,2.7,6
			c4.3,2.1,8.8,3.1,13.5,3.9c3.6,0.6,3.8,0.7,3.8,4.5c0,1.7,0,3.4,0,5.1c0,2.2,1.1,3.4,3.3,3.5c2.5,0,5,0,7.6,0
			c2.1-0.1,3.1-1.2,3.1-3.3c0-2.3,0.1-4.7,0-7c-0.1-2.4,0.9-3.6,3.2-4.2c5.3-1.4,9.8-4.3,13.2-8.5
			C276.3,339.45,272.6,322.35,259,314.85z"/>
	</g>
</g>
<g>
</g>
<g>
</g>
<g>
</g>
<g>
</g>
<g>
</g>
<g>
</g>
<g>
</g>
<g>
</g>
<g>
</g>
<g>
</g>
<g>
</g>
<g>
</g>
<g>
</g>
<g>
</g>
<g>
</g>
</svg>
