<?xml version="1.0" encoding="iso-8859-1"?>
<!-- Generator: Adobe Illustrator 19.1.0, SVG Export Plug-In . SVG Version: 6.00 Build 0)  -->
<svg version="1.1" id="Capa_1" xmlns="http://www.w3.org/2000/svg" xmlns:xlink="http://www.w3.org/1999/xlink" x="0px" y="0px"
	 viewBox="0 0 487.312 487.312" style="enable-background:new 0 0 487.312 487.312;" xml:space="preserve">
<g>
	<g>
		<path d="M353.3,361.869c-46.7-38.4-97.1-63.8-107.3-68.9c-1.2-0.6-1.9-1.7-1.9-3v-72.7c9.1-6.1,15.2-16.5,15.2-28.3v-75.4
			c0-37.5-30.4-67.9-67.9-67.9h-8.1h-8.1c-37.5,0-67.9,30.4-67.9,67.9v75.4c0,11.8,6,22.2,15.2,28.3v72.7c0,1.3-0.7,2.5-1.9,3
			c-10.3,5-60.6,30.5-107.3,68.9c-8.4,6.9-13.3,17.3-13.3,28.2v51.7h183.4h183.2v-51.7C366.6,379.169,361.7,368.769,353.3,361.869z"
			/>
		<path d="M458.3,74.569c-38.7-38.7-101.4-38.7-140.1,0c-37.2,37.2-38.6,96.7-4.2,135.6l1,0.8c-3.7,8.1-10.2,18-20.4,23.1
			c-3.4,1.7-2.6,6.7,1.1,7.3c11.2,1.7,27.2-0.2,42.1-11.5l0.2,0.2c38,22.3,87.6,17.2,120.2-15.4
			C497,175.969,497,113.269,458.3,74.569z M343.8,156.569c-6.6,0-11.9-5.3-11.9-11.9c0-6.6,5.3-11.9,11.9-11.9s11.9,5.3,11.9,11.9
			C355.7,151.169,350.4,156.569,343.8,156.569z M388.3,156.569c-6.6,0-11.9-5.3-11.9-11.9c0-6.6,5.3-11.9,11.9-11.9
			s11.9,5.3,11.9,11.9C400.2,151.169,394.9,156.569,388.3,156.569z M432.8,156.569c-6.6,0-11.9-5.3-11.9-11.9
			c0-6.6,5.3-11.9,11.9-11.9s11.9,5.3,11.9,11.9C444.7,151.169,439.4,156.569,432.8,156.569z"/>
	</g>
</g>
<g>
</g>
<g>
</g>
<g>
</g>
<g>
</g>
<g>
</g>
<g>
</g>
<g>
</g>
<g>
</g>
<g>
</g>
<g>
</g>
<g>
</g>
<g>
</g>
<g>
</g>
<g>
</g>
<g>
</g>
</svg>
