<?xml version="1.0" encoding="iso-8859-1"?>
<!-- Generator: Adobe Illustrator 19.1.0, SVG Export Plug-In . SVG Version: 6.00 Build 0)  -->
<svg version="1.1" id="Capa_1" xmlns="http://www.w3.org/2000/svg" xmlns:xlink="http://www.w3.org/1999/xlink" x="0px" y="0px"
	 viewBox="0 0 487.9 487.9" style="enable-background:new 0 0 487.9 487.9;" xml:space="preserve">
<g>
	<g>
		<g>
			<path d="M418.65,324.9c-48-39.4-99.7-65.6-110.3-70.7c-1.2-0.6-1.9-1.8-1.9-3.1v-74.7c9.4-6.3,15.6-16.9,15.6-29.1V69.8
				c0-38.5-31.2-69.8-69.8-69.8h-8.3h-8.3c-38.5,0-69.8,31.2-69.8,69.8v77.5c0,12.1,6.2,22.8,15.6,29.1V251c0,1.3-0.7,2.5-1.9,3.1
				c-10.5,5.2-62.3,31.3-110.3,70.7c-8.7,7.1-13.7,17.8-13.7,29V407h84.7l0,0c0-27.7,10.8-53.7,30.4-73.3
				c19.6-19.6,45.6-30.4,73.3-30.4s53.7,10.8,73.3,30.4c19.6,19.6,30.4,45.6,30.4,73.3l0,0h84.7v-53.1
				C432.35,342.7,427.35,332,418.65,324.9z"/>
		</g>
		<g>
			<path d="M243.95,325.9c-44.8,0-81,36.3-81,81c0,44.8,36.3,81,81,81c44.8,0,81-36.3,81-81S288.75,325.9,243.95,325.9z
				 M268.35,440.4c-3.7,4.5-8.5,7.5-14.2,9.1c-2.5,0.7-3.6,2-3.4,4.5c0.1,2.5,0,5,0,7.5c0,2.2-1.1,3.4-3.3,3.5
				c-2.7,0.1-5.4,0.1-8.1,0c-2.4,0-3.5-1.4-3.5-3.7c0-1.8,0-3.7-0.1-5.5c0-4-0.2-4.2-4.1-4.8c-5-0.8-9.9-1.9-14.4-4.1
				c-3.6-1.7-3.9-2.6-2.9-6.4c0.8-2.8,1.5-5.6,2.4-8.3c1-3.2,1.9-3.6,4.8-2.1c5,2.6,10.4,4.1,16,4.8c3.6,0.5,7.1,0.1,10.5-1.4
				c6.2-2.7,7.2-10,1.9-14.3c-1.8-1.5-3.8-2.6-6-3.5c-5.5-2.4-11.2-4.2-16.3-7.3c-8.4-5-13.7-11.9-13.1-22.1
				c0.7-11.5,7.2-18.7,17.8-22.6c4.4-1.6,4.4-1.5,4.4-6.1c0-1.5,0-3.1,0-4.6c0.1-3.4,0.7-4,4.1-4.1c1.1,0,2.1,0,3.2,0
				c7.3,0,7.3,0,7.3,7.3c0,5.2,0,5.2,5.2,6c3.9,0.6,7.7,1.8,11.3,3.4c2,0.9,2.8,2.3,2.1,4.4c-0.9,3.1-1.8,6.3-2.8,9.4
				c-1,3-1.9,3.4-4.7,2c-5.7-2.8-11.7-3.9-18-3.6c-1.7,0.1-3.3,0.3-4.8,1c-5.4,2.4-6.3,8.4-1.7,12.1c2.3,1.9,5,3.2,7.8,4.4
				c4.8,2,9.7,3.9,14.2,6.4C274.65,409.7,278.55,428,268.35,440.4z"/>
		</g>
	</g>
</g>
<g>
</g>
<g>
</g>
<g>
</g>
<g>
</g>
<g>
</g>
<g>
</g>
<g>
</g>
<g>
</g>
<g>
</g>
<g>
</g>
<g>
</g>
<g>
</g>
<g>
</g>
<g>
</g>
<g>
</g>
</svg>
