<?xml version="1.0" encoding="iso-8859-1"?>
<!-- Generator: Adobe Illustrator 19.1.0, SVG Export Plug-In . SVG Version: 6.00 Build 0)  -->
<svg version="1.1" id="Capa_1" xmlns="http://www.w3.org/2000/svg" xmlns:xlink="http://www.w3.org/1999/xlink" x="0px" y="0px"
	 viewBox="0 0 488.2 488.2" style="enable-background:new 0 0 488.2 488.2;" xml:space="preserve">
<g>
	<g>
		<path d="M477.8,336.8c-36.6-30.1-76.1-50.1-84.2-54c-0.9-0.4-1.5-1.4-1.5-2.4v-57c7.2-4.8,11.9-12.9,11.9-22.2v-59.1
			c0-29.4-23.9-53.3-53.3-53.3h-6.4h-6.4c-29.4,0-53.3,23.9-53.3,53.3v59.1c0,9.3,4.7,17.4,11.9,22.2v57c0,1-0.6,1.9-1.5,2.4
			c-4.2,2-16.9,8.4-33.2,18.3c9.1,6.3,18.5,13.2,27.7,20.8c11.1,9.1,17.5,22.6,17.5,37v40.5h37.3h143.9v-40.5
			C488.2,350.4,484.4,342.2,477.8,336.8z"/>
		<path d="M277.4,336.8c-36.6-30.1-76.1-50.1-84.2-54c-0.9-0.4-1.5-1.4-1.5-2.4v-57c7.2-4.8,11.9-12.9,11.9-22.2v-59.1
			c0-29.4-23.9-53.3-53.3-53.3h-6.4h-6.4c-29.4,0-53.3,23.9-53.3,53.3v59.1c0,9.3,4.7,17.4,11.9,22.2v57c0,1-0.6,1.9-1.5,2.4
			c-8,3.9-47.5,23.9-84.2,54C3.8,342.2,0,350.4,0,358.9v40.5h124.9l12.3-56.5c-24.9-34.8,1.9-36.5,6.5-36.5l0,0l0,0
			c4.7,0,31.5,1.7,6.5,36.5l12.3,56.5h124.9v-40.5C287.8,350.4,284,342.2,277.4,336.8z"/>
	</g>
</g>
<g>
</g>
<g>
</g>
<g>
</g>
<g>
</g>
<g>
</g>
<g>
</g>
<g>
</g>
<g>
</g>
<g>
</g>
<g>
</g>
<g>
</g>
<g>
</g>
<g>
</g>
<g>
</g>
<g>
</g>
</svg>
