<?xml version="1.0" encoding="iso-8859-1"?>
<!-- Generator: Adobe Illustrator 19.1.0, SVG Export Plug-In . SVG Version: 6.00 Build 0)  -->
<svg version="1.1" id="Capa_1" xmlns="http://www.w3.org/2000/svg" xmlns:xlink="http://www.w3.org/1999/xlink" x="0px" y="0px"
	 viewBox="0 0 489.3 489.3" style="enable-background:new 0 0 489.3 489.3;" xml:space="preserve">
<g>
	<g>
		<g>
			<path d="M419.949,325.8c-48.1-39.5-100-65.8-110.6-70.9c-1.2-0.6-1.9-1.8-1.9-3.1v-74.9c9.4-6.3,15.6-17,15.6-29.1V70
				c0-38.6-31.3-70-70-70h-8.3h-8.4c-38.6,0-70,31.3-70,70v77.7c0,12.2,6.2,22.9,15.6,29.1v74.9c0,1.3-0.8,2.5-1.9,3.1
				c-10.6,5.2-62.4,31.4-110.6,70.9c-8.7,7.1-13.7,17.8-13.7,29.1V408h85l0,0c0-27.8,10.8-53.9,30.4-73.5
				c19.6-19.6,45.7-30.4,73.5-30.4s53.9,10.8,73.5,30.4c19.6,19.6,30.4,45.7,30.4,73.5l0,0h85v-53.2
				C433.649,343.7,428.649,333,419.949,325.8z"/>
		</g>
		<g>
			<path d="M244.749,326.9c-44.9,0-81.2,36.4-81.2,81.2c0,44.8,36.4,81.2,81.2,81.2c44.9,0,81.2-36.4,81.2-81.2
				C325.949,363.3,289.649,326.9,244.749,326.9z M248.349,355.7c7.6,0,13.7,6.3,13.6,14c-0.1,7.6-6.2,13.9-13.7,13.8
				c-7.7-0.1-13.9-6.4-13.9-14.1C234.449,361.8,240.649,355.7,248.349,355.7z M267.949,449c-0.3,1.2-1.1,2.4-1.9,3.3
				c-5,5.1-11,8.1-18.3,8.2c-3.4,0-6.8-0.1-10.1-0.5c-5.5-0.8-12.6-7.6-11.5-14.9c0.7-5,1.4-10,2.3-14.9c1.5-8.6,3-17.3,4.5-25.9
				c0.1-0.5,0.1-1.1,0.1-1.7c0-3.6-1.1-4.9-4.7-5.4c-1.5-0.2-3.1-0.3-4.6-0.9c-1.8-0.6-2.6-2-2.4-3.4c0.2-1.5,1.1-2.5,3.1-2.8
				c1-0.2,2.1-0.2,3.1-0.2c4.2,0,8.5,0,12.7,0c4.5,0,9,0,13.5,0c3.2,0,5.2,1.5,5.2,4.8c0.1,2.7-0.4,5.4-0.9,8
				c-1.7,9.9-3.6,19.7-5.4,29.6c-0.6,3.3-1.3,6.5-1.6,9.8c-0.2,1.6,0,3.2,0.4,4.8c0.5,2.1,2.1,3.2,4.2,3c1.8-0.2,3.5-0.8,5.1-1.5
				c1.4-0.5,2.5-1.5,3.9-2C266.849,445.5,268.549,446.9,267.949,449z"/>
		</g>
	</g>
</g>
<g>
</g>
<g>
</g>
<g>
</g>
<g>
</g>
<g>
</g>
<g>
</g>
<g>
</g>
<g>
</g>
<g>
</g>
<g>
</g>
<g>
</g>
<g>
</g>
<g>
</g>
<g>
</g>
<g>
</g>
</svg>
