<?xml version="1.0" encoding="iso-8859-1"?>
<!-- Generator: Adobe Illustrator 19.1.0, SVG Export Plug-In . SVG Version: 6.00 Build 0)  -->
<svg version="1.1" id="Capa_1" xmlns="http://www.w3.org/2000/svg" xmlns:xlink="http://www.w3.org/1999/xlink" x="0px" y="0px"
	 viewBox="0 0 487.712 487.712" style="enable-background:new 0 0 487.712 487.712;" xml:space="preserve">
<g>
	<g>
		<g>
			<path d="M345.4,359.419c-45.7-37.5-94.9-62.4-104.9-67.3c-1.1-0.6-1.8-1.7-1.8-3v-71.1c8.9-6,14.8-16.1,14.8-27.7v-73.7
				c0-36.7-29.7-66.4-66.4-66.4h-7.9h-7.9c-36.7,0-66.4,29.7-66.4,66.4v73.7c0,11.5,5.9,21.7,14.8,27.7v71.1c0,1.3-0.7,2.4-1.8,3
				c-10,4.9-59.3,29.8-104.9,67.3c-8.3,6.8-13,16.9-13,27.6v50.5h155.7l15.4-70.5c-31.1-43.4,2.3-45.5,8.1-45.5l0,0l0,0
				c5.8,0,39.2,2.1,8.1,45.5l15.4,70.5h155.7v-50.5C358.4,376.419,353.7,366.219,345.4,359.419z"/>
		</g>
		<g>
			<path d="M458.1,79.819c-39.5-39.5-103.4-39.5-142.9,0c-38,38-39.4,98.7-4.3,138.4l1,0.8c-3.8,8.2-10.4,18.4-20.8,23.5
				c-3.4,1.7-2.6,6.8,1.1,7.4c11.4,1.8,27.7-0.2,43-11.7l0.2,0.2c38.7,22.8,89.4,17.5,122.6-15.7
				C497.6,183.319,497.6,119.319,458.1,79.819z M390.9,88.919c9.1,0,16.3,7.5,16.3,16.7c-0.1,9.1-7.4,16.5-16.3,16.5
				c-9.2-0.1-16.6-7.6-16.5-16.7C374.4,96.219,381.8,88.819,390.9,88.919z M414.4,200.019c-0.4,1.4-1.3,2.9-2.3,3.9
				c-6,6-13.1,9.7-21.8,9.8c-4,0.1-8-0.1-12-0.7c-6.6-0.9-15-9.1-13.8-17.8c0.8-5.9,1.7-11.9,2.7-17.8c1.7-10.3,3.6-20.6,5.4-30.9
				c0.1-0.6,0.2-1.3,0.2-2c0-4.3-1.4-5.8-5.6-6.4c-1.8-0.3-3.7-0.4-5.4-1c-2.1-0.8-3.1-2.4-2.9-4.1c0.2-1.8,1.3-2.9,3.7-3.4
				c1.2-0.2,2.5-0.3,3.8-0.3c5,0,10.1,0,15.1,0c5.3,0,10.7,0,16,0c3.8,0,6.2,1.8,6.2,5.7c0.1,3.2-0.5,6.4-1,9.6
				c-2.1,11.8-4.3,23.5-6.4,35.3c-0.7,3.9-1.5,7.8-2,11.7c-0.2,1.9,0,3.9,0.5,5.7c0.6,2.5,2.5,3.8,5,3.5c2.1-0.2,4.2-1,6.1-1.7
				c1.6-0.6,3-1.7,4.6-2.4C413,195.819,415,197.519,414.4,200.019z"/>
		</g>
	</g>
</g>
<g>
</g>
<g>
</g>
<g>
</g>
<g>
</g>
<g>
</g>
<g>
</g>
<g>
</g>
<g>
</g>
<g>
</g>
<g>
</g>
<g>
</g>
<g>
</g>
<g>
</g>
<g>
</g>
<g>
</g>
</svg>
