<?xml version="1.0" encoding="iso-8859-1"?>
<!-- Generator: Adobe Illustrator 19.1.0, SVG Export Plug-In . SVG Version: 6.00 Build 0)  -->
<svg version="1.1" id="Capa_1" xmlns="http://www.w3.org/2000/svg" xmlns:xlink="http://www.w3.org/1999/xlink" x="0px" y="0px"
	 viewBox="0 0 488.413 488.413" style="enable-background:new 0 0 488.413 488.413;" xml:space="preserve">
<g>
	<g>
		<path d="M240.6,162.906c-14.6-20.4,1.1-21.3,3.8-21.4l0,0l0,0c2.7,0,18.4,1,3.8,21.4l7.2,33.1h73.1v-23.7c0-5-2.2-9.8-6.1-13
			c-21.4-17.6-44.5-29.3-49.3-31.6c-0.5-0.3-0.9-0.8-0.9-1.4v-33.4c4.2-2.8,7-7.6,7-13v-34.5c0-17.2-14-31.2-31.2-31.2h-3.6h-3.7
			c-17.2,0-31.2,14-31.2,31.2v34.6c0,5.4,2.8,10.2,7,13v33.4c0,0.6-0.3,1.1-0.9,1.4c-4.7,2.3-27.8,14-49.3,31.6
			c-3.9,3.2-6.1,7.9-6.1,13v23.7h73.2L240.6,162.906z"/>
		<path d="M482.5,437.506c-21.4-17.6-44.5-29.3-49.3-31.6c-0.5-0.3-0.9-0.8-0.9-1.4v-33.3c4.2-2.8,7-7.6,7-13v-34.6
			c0-17.2-14-31.2-31.2-31.2h-3.7h-3.7c-17.2,0-31.2,14-31.2,31.2v34.6c0,5.4,2.8,10.2,7,13v33.4c0,0.6-0.3,1.1-0.9,1.4
			c-4.7,2.3-27.8,14-49.3,31.6c-3.9,3.2-6.1,7.9-6.1,13v23.6h73.1l7.2-33.1c-14.6-20.4,1.1-21.3,3.8-21.4l0,0l0,0
			c2.7,0,18.4,1,3.8,21.4l7.2,33.1h73.1v-23.7C488.6,445.506,486.4,440.706,482.5,437.506z"/>
		<path d="M162.3,437.506c-21.4-17.6-44.5-29.3-49.3-31.6c-0.5-0.3-0.9-0.8-0.9-1.4v-33.3c4.2-2.8,7-7.6,7-13v-34.6
			c0-17.2-14-31.2-31.2-31.2h-3.7h-3.7c-17.2,0-31.2,14-31.2,31.2v34.6c0,5.4,2.8,10.2,7,13v33.4c0,0.6-0.3,1.1-0.9,1.4
			c-4.7,2.3-27.8,14-49.3,31.6c-3.9,3.2-6.1,7.9-6.1,13v23.6h73.1l7.2-33.1c-14.6-20.4,1.1-21.3,3.8-21.4l0,0l0,0
			c2.7,0,18.4,1,3.8,21.4l7.2,33.1h73.3v-23.7C168.4,445.506,166.2,440.706,162.3,437.506z"/>
		<path d="M244.4,241.106c-43.7,0-79.1,35.4-79.1,79.1s35.4,79.1,79.1,79.1s79.1-35.4,79.1-79.1S288.1,241.106,244.4,241.106z
			 M267.1,351.406c-3.5,4.2-7.9,7-13.2,8.5c-2.3,0.6-3.3,1.8-3.2,4.2c0.1,2.3,0,4.7,0,7c0,2.1-1.1,3.2-3.1,3.3c-2.5,0.1-5,0.1-7.5,0
			c-2.2,0-3.2-1.3-3.3-3.4c0-1.7,0-3.4,0-5.1c0-3.8-0.2-3.9-3.8-4.5c-4.6-0.7-9.2-1.8-13.4-3.8c-3.3-1.6-3.7-2.4-2.7-5.9
			c0.7-2.6,1.4-5.2,2.2-7.8c0.9-3,1.7-3.4,4.5-1.9c4.7,2.4,9.7,3.8,14.9,4.5c3.4,0.4,6.7,0.1,9.8-1.3c5.8-2.5,6.7-9.3,1.8-13.3
			c-1.7-1.4-3.6-2.4-5.6-3.3c-5.1-2.2-10.4-4-15.2-6.8c-7.8-4.7-12.8-11.1-12.2-20.6c0.7-10.7,6.7-17.5,16.6-21
			c4.1-1.5,4.1-1.4,4.1-5.7c0-1.4,0-2.9,0-4.3c0.1-3.2,0.6-3.8,3.8-3.8c1,0,2,0,3,0c6.8,0,6.8,0,6.8,6.8c0,4.8,0,4.8,4.8,5.6
			c3.7,0.6,7.2,1.7,10.6,3.1c1.9,0.8,2.6,2.1,2,4.1c-0.9,2.9-1.6,5.9-2.6,8.8c-0.9,2.7-1.8,3.1-4.4,1.9c-5.3-2.6-10.9-3.6-16.7-3.3
			c-1.5,0.1-3,0.3-4.5,0.9c-5.1,2.2-5.9,7.8-1.6,11.3c2.2,1.7,4.7,3,7.3,4.1c4.5,1.9,9,3.6,13.3,6
			C273,322.706,276.7,339.806,267.1,351.406z"/>
	</g>
</g>
<g>
</g>
<g>
</g>
<g>
</g>
<g>
</g>
<g>
</g>
<g>
</g>
<g>
</g>
<g>
</g>
<g>
</g>
<g>
</g>
<g>
</g>
<g>
</g>
<g>
</g>
<g>
</g>
<g>
</g>
</svg>
