<?xml version="1.0" encoding="iso-8859-1"?>
<!-- Generator: Adobe Illustrator 19.1.0, SVG Export Plug-In . SVG Version: 6.00 Build 0)  -->
<svg version="1.1" id="Capa_1" xmlns="http://www.w3.org/2000/svg" xmlns:xlink="http://www.w3.org/1999/xlink" x="0px" y="0px"
	 viewBox="0 0 487.2 487.2" style="enable-background:new 0 0 487.2 487.2;" xml:space="preserve">
<g>
	<g>
		<g>
			<path d="M477,360.7c-35.8-29.4-74.4-48.9-82.2-52.7c-0.9-0.4-1.4-1.3-1.4-2.3V250c7-4.7,11.6-12.6,11.6-21.7v-57.8
				c0-28.7-23.3-52-52-52h-6.2h-6.3c-28.7,0-52,23.3-52,52v57.8c0,9,4.6,17,11.6,21.7v55.7c0,0.3-0.1,0.7-0.2,1
				c11,7.5,22.4,15.9,33.6,25.1c13.1,10.8,20.6,26.7,20.6,43.7V422h133.1v-39.6C487.2,374,483.5,366,477,360.7z"/>
		</g>
		<g>
			<path d="M319,350.3c-42.2-34.7-87.7-57.7-96.9-62.2c-1-0.5-1.7-1.6-1.7-2.7v-65.7c8.3-5.5,13.7-14.9,13.7-25.6V126
				c0-33.9-27.5-61.3-61.3-61.3h-7.3h-7.3c-33.9,0-61.3,27.5-61.3,61.3v68.1c0,10.7,5.5,20,13.7,25.6v65.7c0,1.2-0.7,2.2-1.7,2.7
				c-9.3,4.5-54.7,27.5-96.9,62.2c-7.6,6.3-12,15.6-12,25.5v46.7h143.9l14.2-65.1c-28.7-40.1,2.1-42,7.5-42l0,0l0,0
				c5.4,0,36.2,2,7.5,42l14.2,65.1h143.9v-46.7C331,365.9,326.6,356.6,319,350.3z"/>
		</g>
	</g>
</g>
<g>
</g>
<g>
</g>
<g>
</g>
<g>
</g>
<g>
</g>
<g>
</g>
<g>
</g>
<g>
</g>
<g>
</g>
<g>
</g>
<g>
</g>
<g>
</g>
<g>
</g>
<g>
</g>
<g>
</g>
</svg>
