<?xml version="1.0" encoding="iso-8859-1"?>
<!-- Generator: Adobe Illustrator 19.1.0, SVG Export Plug-In . SVG Version: 6.00 Build 0)  -->
<svg version="1.1" id="Capa_1" xmlns="http://www.w3.org/2000/svg" xmlns:xlink="http://www.w3.org/1999/xlink" x="0px" y="0px"
	 viewBox="0 0 488.108 488.108" style="enable-background:new 0 0 488.108 488.108;" xml:space="preserve">
<g>
	<g>
		<g>
			<path d="M193.2,282.804c-0.9-0.4-1.5-1.4-1.5-2.4v-57.1c7.2-4.8,11.9-12.9,11.9-22.2v-59.2c0-29.4-23.9-53.3-53.3-53.3h-6.4h-6.4
				c-29.4,0-53.3,23.9-53.3,53.3v59.2c0,9.3,4.7,17.4,11.9,22.2v57.1c0,1-0.6,1.9-1.5,2.4c-8,3.9-47.6,23.9-84.2,54
				c-6.6,5.4-10.4,13.6-10.4,22.2v40.5h143.9h37.3v-40.5c0-14.4,6.4-27.9,17.5-37c9.2-7.6,18.6-14.5,27.7-20.8
				C210.1,291.204,197.4,284.804,193.2,282.804z"/>
		</g>
		<g>
			<path d="M477.9,336.804c-36.7-30.1-76.2-50.1-84.2-54c-0.9-0.4-1.5-1.4-1.5-2.4v-57.1c7.2-4.8,11.9-12.9,11.9-22.2v-59.2
				c0-29.4-23.9-53.3-53.3-53.3h-6.4H338c-29.4,0-53.3,23.9-53.3,53.3v59.2c0,9.3,4.7,17.4,11.9,22.2v57.1c0,1-0.6,1.9-1.5,2.4
				c-8,3.9-47.6,23.9-84.2,54c-6.6,5.4-10.4,13.6-10.4,22.2v40.5h125l12.3-56.5c-24.9-34.8,1.9-36.5,6.5-36.5l0,0l0,0
				c4.7,0,31.5,1.7,6.5,36.5l12.3,56.5h125v-40.5C488.3,350.404,484.5,342.304,477.9,336.804z"/>
		</g>
	</g>
</g>
<g>
</g>
<g>
</g>
<g>
</g>
<g>
</g>
<g>
</g>
<g>
</g>
<g>
</g>
<g>
</g>
<g>
</g>
<g>
</g>
<g>
</g>
<g>
</g>
<g>
</g>
<g>
</g>
<g>
</g>
</svg>
