<?xml version="1.0" encoding="iso-8859-1"?>
<!-- Generator: Adobe Illustrator 19.1.0, SVG Export Plug-In . SVG Version: 6.00 Build 0)  -->
<svg version="1.1" id="Capa_1" xmlns="http://www.w3.org/2000/svg" xmlns:xlink="http://www.w3.org/1999/xlink" x="0px" y="0px"
	 viewBox="0 0 488.738 488.738" style="enable-background:new 0 0 488.738 488.738;" xml:space="preserve">
<g>
	<g>
		<g>
			<path d="M347.3,360.431c-45.9-37.7-95.4-62.7-105.4-67.7c-1.1-0.6-1.9-1.7-1.9-3v-71.4c9-6,14.9-16.2,14.9-27.8v-74.1
				c0-36.9-29.9-66.7-66.7-66.7h-8h-8c-36.9,0-66.7,29.9-66.7,66.7v74.1c0,11.6,5.9,21.8,14.9,27.8v71.5c0,1.3-0.7,2.4-1.9,3
				c-10.1,4.9-59.6,29.9-105.4,67.7c-8.3,6.8-13.1,17-13.1,27.7v50.8h156.5h47.3h156.5v-50.8
				C360.3,377.431,355.6,367.231,347.3,360.431z"/>
		</g>
		<g>
			<path d="M459.2,79.331c-39.5-39.5-103.5-39.5-142.9,0c-38,38-39.4,98.7-4.3,138.4l1,0.8c-3.8,8.2-10.4,18.4-20.8,23.5
				c-3.4,1.7-2.6,6.8,1.1,7.4c11.4,1.8,27.7-0.2,43-11.7l0.2,0.2c38.7,22.8,89.4,17.5,122.6-15.7
				C498.6,182.731,498.6,118.831,459.2,79.331z M414.7,187.731c-4.1,5-9.4,8.3-15.6,10c-2.7,0.7-3.9,2.2-3.8,5s0,5.5,0,8.3
				c0,2.5-1.3,3.8-3.7,3.9c-3,0.1-6,0.1-8.9,0c-2.6,0-3.8-1.5-3.9-4.1c0-2,0-4-0.1-6.1c0-4.5-0.2-4.7-4.5-5.3
				c-5.5-0.9-10.9-2.1-15.9-4.6c-4-1.9-4.4-2.9-3.2-7c0.8-3.1,1.7-6.2,2.6-9.2c1.1-3.5,2.1-4,5.3-2.3c5.6,2.9,11.5,4.5,17.7,5.3
				c4,0.5,7.9,0.1,11.6-1.5c6.9-3,8-11,2.2-15.8c-2-1.6-4.2-2.8-6.6-3.9c-6-2.7-12.4-4.7-18.1-8.1c-9.3-5.5-15.1-13.2-14.5-24.4
				c0.8-12.8,8-20.7,19.7-25c4.8-1.8,4.8-1.7,4.9-6.7c0-1.7,0-3.4,0-5.1c0.1-3.8,0.7-4.5,4.5-4.6c1.2,0,2.3,0,3.5,0
				c8.1,0,8.1,0,8.1,8.1c0,5.7,0,5.7,5.7,6.6c4.3,0.7,8.5,2,12.5,3.7c2.2,1,3.1,2.5,2.4,4.9c-1,3.5-2,7-3.1,10.4
				c-1.1,3.3-2.1,3.7-5.2,2.2c-6.3-3-12.9-4.3-19.8-3.9c-1.8,0.1-3.6,0.3-5.3,1.1c-6,2.6-7,9.3-1.9,13.3c2.6,2.1,5.5,3.6,8.6,4.8
				c5.3,2.2,10.7,4.3,15.7,7.1C421.6,153.831,426,174.031,414.7,187.731z"/>
		</g>
	</g>
</g>
<g>
</g>
<g>
</g>
<g>
</g>
<g>
</g>
<g>
</g>
<g>
</g>
<g>
</g>
<g>
</g>
<g>
</g>
<g>
</g>
<g>
</g>
<g>
</g>
<g>
</g>
<g>
</g>
<g>
</g>
</svg>
