<?xml version="1.0" encoding="iso-8859-1"?>
<!-- Generator: Adobe Illustrator 19.1.0, SVG Export Plug-In . SVG Version: 6.00 Build 0)  -->
<svg version="1.1" id="Capa_1" xmlns="http://www.w3.org/2000/svg" xmlns:xlink="http://www.w3.org/1999/xlink" x="0px" y="0px"
	 viewBox="0 0 487 487" style="enable-background:new 0 0 487 487;" xml:space="preserve">
<g>
	<g>
		<g>
			<path d="M279.1,367.5c0-20,5-39.2,14.3-56.3c-13.3-7.4-23-12.4-27.1-14.3c-1.3-0.6-2-1.9-2-3.3v-78.7
				c9.9-6.6,16.4-17.8,16.4-30.6v-81.6c0-40.6-32.9-73.5-73.5-73.5h-8.8h-8.8c-40.6,0-73.5,32.9-73.5,73.5v81.6
				c0,12.8,6.5,24,16.4,30.6v78.7c0,1.4-0.8,2.7-2,3.3c-11.1,5.4-65.6,33-116.1,74.5C5.3,378.9,0,390.1,0,401.9v55.9h198.3h122.8
				c-2.7-2.2-5.2-4.6-7.7-7C291.4,428.5,279.1,398.9,279.1,367.5z"/>
		</g>
		<g>
			<path d="M396.8,277.2c-49.8,0-90.2,40.4-90.2,90.2s40.4,90.2,90.2,90.2s90.2-40.4,90.2-90.2S446.6,277.2,396.8,277.2z
				 M400.8,309.3c8.5,0,15.2,7,15.2,15.6c-0.1,8.5-6.9,15.4-15.2,15.4c-8.6-0.1-15.5-7.1-15.4-15.6
				C385.4,316.1,392.3,309.3,400.8,309.3z M422.6,412.8c-0.3,1.3-1.2,2.7-2.1,3.7c-5.6,5.6-12.2,9-20.3,9.1c-3.7,0-7.5-0.1-11.2-0.6
				c-6.1-0.9-13.9-8.5-12.8-16.6c0.8-5.5,1.6-11.1,2.5-16.6c1.6-9.6,3.3-19.2,5-28.8c0.1-0.6,0.2-1.2,0.2-1.8c0-4-1.3-5.4-5.2-6
				c-1.7-0.2-3.5-0.4-5.1-0.9c-2-0.7-2.9-2.3-2.7-3.8c0.2-1.7,1.3-2.7,3.4-3.2c1.1-0.2,2.3-0.3,3.5-0.3c4.7,0,9.4,0,14.1,0
				c5,0,10,0,15,0c3.6,0,5.7,1.7,5.8,5.3c0.1,3-0.4,6-1,8.9c-1.9,11-4,21.9-6,32.9c-0.7,3.6-1.4,7.2-1.8,10.9
				c-0.2,1.7,0,3.6,0.5,5.3c0.6,2.3,2.3,3.6,4.6,3.3c1.9-0.2,3.9-0.9,5.7-1.6c1.5-0.6,2.8-1.6,4.3-2.2
				C421.3,409,423.2,410.5,422.6,412.8z"/>
		</g>
	</g>
</g>
<g>
</g>
<g>
</g>
<g>
</g>
<g>
</g>
<g>
</g>
<g>
</g>
<g>
</g>
<g>
</g>
<g>
</g>
<g>
</g>
<g>
</g>
<g>
</g>
<g>
</g>
<g>
</g>
<g>
</g>
</svg>
