<?xml version="1.0" encoding="iso-8859-1"?>
<!-- Generator: Adobe Illustrator 19.1.0, SVG Export Plug-In . SVG Version: 6.00 Build 0)  -->
<svg version="1.1" id="Capa_1" xmlns="http://www.w3.org/2000/svg" xmlns:xlink="http://www.w3.org/1999/xlink" x="0px" y="0px"
	 viewBox="0 0 479 479" style="enable-background:new 0 0 479 479;" xml:space="preserve">
<g>
	<g>
		<g>
			<path d="M290.2,275.5c-15-8.6-26.2-14.2-30.6-16.3c-1.2-0.6-2-1.8-2-3.2v-76.2c9.6-6.4,15.9-17.3,15.9-29.6v-79
				c0-39.3-31.9-71.2-71.2-71.2h-8.5h-8.5c-39.3,0-71.2,31.9-71.2,71.2v79c0,12.4,6.3,23.3,15.9,29.6V256c0,1.3-0.8,2.6-2,3.2
				c-10.7,5.3-63.5,31.9-112.5,72.2C6.7,338.7,1.6,349.5,1.6,361v54.1h166.9l16.5-75.5c-33.3-46.5,2.5-48.7,8.7-48.8l0,0l0,0
				c6.2,0,42,2.3,8.7,48.8l16.5,75.5h31.4c-4.3-12.8-6.6-26.5-6.6-40.7C243.9,334.7,262,299.1,290.2,275.5z"/>
		</g>
		<g>
			<path d="M408.5,400.4l-0.1-0.1c-0.1-0.1-0.2-0.2-0.3-0.4l-22.2-26.5c-1-1.1-1.5-2.5-1.6-4l-3.2-49.8l0,0c-0.4-4.6-4.3-8.2-9-8.2
				c-4.6,0-8.4,3.5-8.9,7.9l0,0v0.1c0,0.2,0,0.4,0,0.6l-3.6,54.7c0,0.4-0.1,0.7-0.1,1.1v0.1l0,0c0,0.1,0,0.1,0,0.2s0,0.2,0,0.3
				c0,3.3,1.2,6.6,3.7,9.1c0.5,0.5,1.1,1,1.7,1.4l30.6,25.7l0,0c3.5,3,8.9,2.9,12.2-0.5C410.9,408.9,411.1,403.9,408.5,400.4
				L408.5,400.4z"/>
		</g>
		<g>
			<path d="M372.8,269.8c-57.7,0-104.6,46.9-104.6,104.6S315.1,479,372.8,479s104.6-46.9,104.6-104.6
				C477.4,316.7,430.5,269.8,372.8,269.8z M372.8,451.9c-42.8,0-77.6-34.8-77.6-77.6s34.8-77.6,77.6-77.6s77.6,34.8,77.6,77.6
				C450.4,417.1,415.6,451.9,372.8,451.9z"/>
		</g>
	</g>
</g>
<g>
</g>
<g>
</g>
<g>
</g>
<g>
</g>
<g>
</g>
<g>
</g>
<g>
</g>
<g>
</g>
<g>
</g>
<g>
</g>
<g>
</g>
<g>
</g>
<g>
</g>
<g>
</g>
<g>
</g>
</svg>
