<?xml version="1.0" encoding="utf-8"?>
<!-- Generator: Adobe Illustrator 22.0.1, SVG Export Plug-In . SVG Version: 6.00 Build 0)  -->
<svg version="1.1" id="Layer_1" xmlns="http://www.w3.org/2000/svg" xmlns:xlink="http://www.w3.org/1999/xlink" x="0px" y="0px"
	 viewBox="0 0 48 48" style="enable-background:new 0 0 48 48;" xml:space="preserve">
<path d="M7,41c9.4,9.4,24.6,9.4,33.9,0S50.3,16.4,41,7S16.4-2.3,7,7S-2.3,31.6,7,41z M11.3,36.7c-7-7-7-18.4,0-25.5s18.4-7,25.5,0
	s7,18.4,0,25.5S18.3,43.8,11.3,36.7z M14.6,17.6c0-0.8,0.3-1.6,0.9-2.1c0.5-0.5,1.3-0.9,2.1-0.9l8.5,0c1.2,0,2.3,0.7,2.8,1.9
	c0.5,1.1,0.2,2.4-0.7,3.3l-2.1,2.1l6.4,6.4c1.2,1.2,1.2,3.1,0,4.2c-1.2,1.2-3.1,1.2-4.2,0l-6.4-6.4l-2.1,2.1
	c-0.9,0.9-2.2,1.1-3.3,0.7c-1.1-0.5-1.9-1.6-1.9-2.8V17.6z"/>
</svg>
