<?xml version="1.0" encoding="utf-8"?>
<!-- Generator: Adobe Illustrator 22.0.1, SVG Export Plug-In . SVG Version: 6.00 Build 0)  -->
<svg version="1.1" id="Layer_1" xmlns="http://www.w3.org/2000/svg" xmlns:xlink="http://www.w3.org/1999/xlink" x="0px" y="0px"
	 viewBox="0 0 48 48" style="enable-background:new 0 0 48 48;" xml:space="preserve">
<path d="M41,7C31.6-2.3,16.4-2.3,7,7S-2.3,31.6,7,41s24.6,9.4,33.9,0S50.3,16.4,41,7z M36.7,11.3c7,7,7,18.4,0,25.5s-18.4,7-25.5,0
	s-7-18.4,0-25.5S29.7,4.2,36.7,11.3z M33.4,30.4c0,0.8-0.3,1.6-0.9,2.1c-0.5,0.5-1.3,0.9-2.1,0.9l-8.5,0c-1.2,0-2.3-0.7-2.8-1.9
	c-0.5-1.1-0.2-2.4,0.7-3.3l2.1-2.1l-6.4-6.4c-1.2-1.2-1.2-3.1,0-4.2s3.1-1.2,4.2,0l6.4,6.4l2.1-2.1c0.9-0.9,2.2-1.1,3.3-0.7
	c1.1,0.5,1.9,1.6,1.9,2.8V30.4z"/>
</svg>
