<svg xmlns="http://www.w3.org/2000/svg" height="638pt" version="1.1" viewBox="0 0 638 638.74863" width="638pt">
<g id="surface1">
<path d="M 319.117188 170.625 C 236.96875 170.625 170.371094 237.222656 170.371094 319.371094 C 170.371094 401.519531 236.96875 468.117188 319.117188 468.117188 C 401.265625 468.117188 467.863281 401.519531 467.863281 319.371094 C 467.777344 237.257812 401.230469 170.710938 319.117188 170.625 Z M 319.117188 446.867188 C 248.703125 446.867188 191.617188 389.785156 191.617188 319.371094 C 191.617188 248.953125 248.703125 191.871094 319.117188 191.871094 C 389.53125 191.871094 446.613281 248.957031 446.613281 319.371094 C 446.539062 389.75 389.496094 446.789062 319.117188 446.867188 Z M 319.117188 446.867188 " style=" stroke:none;fill-rule:nonzero;fill:rgb(0%,0%,0%);fill-opacity:1;" />
<path d="M 584.734375 450.796875 L 584.734375 187.929688 C 635.457031 158.761719 652.925781 94 623.753906 43.285156 C 613.292969 25.082031 597.65625 10.398438 578.828125 1.105469 C 573.570312 -1.496094 567.195312 0.652344 564.589844 5.910156 C 563.863281 7.375 563.488281 8.980469 563.484375 10.613281 L 563.484375 100.332031 L 531.613281 116.265625 L 499.734375 100.332031 L 499.734375 10.613281 C 499.730469 4.746094 494.96875 -0.00390625 489.101562 0 C 487.464844 0.00390625 485.855469 0.378906 484.394531 1.105469 C 450.910156 17.652344 428.683594 50.671875 425.957031 87.917969 C 412.09375 81.496094 397.664062 76.351562 382.863281 72.558594 L 382.863281 11.253906 C 382.863281 5.386719 378.101562 0.628906 372.234375 0.628906 L 265.992188 0.628906 C 260.125 0.628906 255.363281 5.386719 255.363281 11.253906 L 255.363281 72.546875 C 232.269531 78.441406 210.128906 87.582031 189.609375 99.703125 L 146.324219 56.4375 C 142.175781 52.289062 135.453125 52.289062 131.300781 56.4375 L 56.183594 131.554688 C 52.035156 135.707031 52.035156 142.429688 56.183594 146.578125 L 99.449219 189.863281 C 87.328125 210.382812 78.1875 232.523438 72.292969 255.617188 L 11 255.617188 C 5.128906 255.617188 0.375 260.378906 0.375 266.246094 L 0.375 372.496094 C 0.375 378.363281 5.128906 383.117188 11 383.117188 L 72.292969 383.117188 C 78.1875 406.214844 87.328125 428.351562 99.449219 448.875 L 56.183594 492.160156 C 52.035156 496.308594 52.035156 503.035156 56.183594 507.183594 L 131.300781 582.300781 C 135.453125 586.445312 142.175781 586.445312 146.324219 582.300781 L 189.609375 539.035156 C 210.128906 551.15625 232.269531 560.300781 255.363281 566.191406 L 255.363281 627.484375 C 255.363281 633.351562 260.121094 638.113281 265.992188 638.113281 L 372.242188 638.113281 C 378.109375 638.113281 382.863281 633.351562 382.863281 627.484375 L 382.863281 566.179688 C 397.660156 562.386719 412.078125 557.242188 425.9375 550.816406 C 428.664062 588.066406 450.890625 621.085938 484.375 637.632812 C 489.625 640.246094 496.003906 638.113281 498.625 632.859375 C 499.355469 631.386719 499.734375 629.769531 499.734375 628.125 L 499.734375 538.429688 L 531.613281 522.496094 L 563.488281 538.429688 L 563.488281 628.125 C 563.492188 633.992188 568.253906 638.742188 574.121094 638.738281 C 575.753906 638.738281 577.367188 638.355469 578.828125 637.636719 C 631.292969 611.71875 652.816406 548.1875 626.902344 495.71875 C 617.605469 476.898438 602.933594 461.261719 584.734375 450.796875 Z M 555.8125 439.042969 C 552.304688 438.246094 548.761719 437.625 545.1875 437.1875 C 544.304688 437.070312 543.425781 436.964844 542.53125 436.878906 C 538.902344 436.476562 535.257812 436.261719 531.613281 436.242188 C 529.964844 436.242188 528.316406 436.242188 527.050781 436.359375 C 522.824219 436.542969 518.609375 436.988281 514.4375 437.695312 C 513.097656 437.910156 511.804688 438.226562 510.484375 438.492188 C 507.585938 439.078125 504.726562 439.753906 501.898438 440.617188 C 501.1875 440.832031 500.445312 440.925781 499.773438 441.148438 L 499.773438 197.632812 C 500.476562 197.855469 501.203125 197.949219 501.898438 198.152344 C 504.726562 198.980469 507.578125 199.660156 510.402344 200.277344 C 511.710938 200.539062 512.984375 200.847656 514.292969 201.0625 C 518.386719 201.769531 522.519531 202.207031 526.671875 202.390625 C 528.316406 202.519531 529.960938 202.527344 531.605469 202.527344 C 531.832031 202.527344 532.054688 202.527344 532.289062 202.527344 C 540.160156 202.558594 548.011719 201.640625 555.660156 199.800781 C 556.128906 199.683594 556.585938 199.53125 557.054688 199.414062 C 559.179688 198.863281 561.378906 198.351562 563.503906 197.664062 L 563.503906 441.148438 C 561.1875 440.417969 558.839844 439.800781 556.480469 439.230469 Z M 478.488281 29.886719 L 478.488281 106.875 C 478.484375 110.902344 480.757812 114.585938 484.359375 116.382812 L 526.859375 137.636719 C 529.851562 139.097656 533.347656 139.097656 536.339844 137.636719 L 578.839844 116.382812 C 582.449219 114.589844 584.730469 110.90625 584.734375 106.875 L 584.734375 29.886719 C 621.382812 59.21875 627.316406 112.710938 597.984375 149.363281 C 581.851562 169.523438 557.429688 181.253906 531.613281 181.246094 C 530.476562 181.246094 529.378906 181.246094 527.882812 181.15625 C 516.03125 180.683594 504.414062 177.683594 493.820312 172.355469 C 467.414062 159.167969 449.703125 133.273438 446.972656 103.890625 C 446.714844 101.351562 446.59375 98.800781 446.613281 96.253906 C 446.519531 70.417969 458.261719 45.964844 478.488281 29.886719 Z M 369.953125 547.417969 C 365.085938 548.488281 361.617188 552.800781 361.617188 557.785156 L 361.617188 616.859375 L 276.617188 616.859375 L 276.617188 557.785156 C 276.613281 552.800781 273.136719 548.484375 268.265625 547.417969 C 241.796875 541.601562 216.558594 531.167969 193.703125 516.609375 C 189.5 513.941406 184.015625 514.546875 180.496094 518.058594 L 138.816406 559.765625 L 78.722656 499.667969 L 120.433594 457.988281 C 123.949219 454.46875 124.554688 448.980469 121.890625 444.78125 C 107.324219 421.929688 96.894531 396.691406 91.074219 370.21875 C 90.007812 365.339844 85.691406 361.867188 80.695312 361.867188 L 21.621094 361.867188 L 21.621094 276.871094 L 80.695312 276.871094 C 85.6875 276.867188 90 273.390625 91.066406 268.519531 C 96.886719 242.046875 107.3125 216.808594 121.878906 193.953125 C 124.546875 189.75 123.941406 184.265625 120.421875 180.746094 L 78.722656 139.0625 L 138.816406 78.972656 L 180.496094 120.6875 C 184.015625 124.199219 189.5 124.808594 193.703125 122.140625 C 216.558594 107.578125 241.796875 97.144531 268.269531 91.332031 C 273.140625 90.261719 276.621094 85.941406 276.617188 80.949219 L 276.617188 21.875 L 361.617188 21.875 L 361.617188 80.949219 C 361.617188 85.9375 365.085938 90.25 369.953125 91.320312 C 389.632812 95.636719 408.648438 102.535156 426.523438 111.828125 C 426.742188 113.324219 427.15625 114.769531 427.445312 116.257812 C 427.777344 117.96875 428.09375 119.667969 428.507812 121.355469 C 429.144531 123.972656 429.929688 126.519531 430.773438 129.058594 C 431.261719 130.570312 431.710938 132.101562 432.269531 133.597656 C 433.332031 136.421875 434.609375 139.175781 435.914062 141.90625 C 436.4375 142.96875 436.871094 144.148438 437.445312 145.230469 C 439.390625 148.984375 441.5625 152.617188 443.945312 156.109375 C 444.414062 156.8125 445.007812 157.441406 445.476562 158.117188 C 447.441406 160.863281 449.492188 163.558594 451.722656 166.109375 C 452.785156 167.308594 453.910156 168.390625 455.007812 169.542969 C 456.835938 171.460938 458.683594 173.367188 460.648438 175.152344 C 461.96875 176.332031 463.347656 177.410156 464.714844 178.539062 C 466.652344 180.121094 468.621094 181.660156 470.667969 183.109375 C 472.152344 184.171875 473.6875 185.125 475.226562 186.089844 C 476.289062 186.792969 477.351562 187.59375 478.488281 188.214844 L 478.488281 450.5 C 477.328125 451.160156 476.289062 451.976562 475.160156 452.625 C 473.683594 453.5625 472.222656 454.496094 470.792969 455.492188 C 468.667969 457.003906 466.542969 458.605469 464.578125 460.261719 C 463.28125 461.324219 461.976562 462.386719 460.734375 463.449219 C 458.703125 465.277344 456.8125 467.222656 454.929688 469.199219 C 453.867188 470.261719 452.804688 471.324219 451.742188 472.535156 C 449.617188 474.9375 447.738281 477.476562 445.871094 480.046875 C 445.242188 480.90625 444.519531 481.707031 443.925781 482.585938 C 441.597656 486.023438 439.46875 489.585938 437.550781 493.265625 C 436.796875 494.707031 436.203125 496.226562 435.511719 497.703125 C 434.449219 500.042969 433.3125 502.378906 432.386719 504.8125 C 431.703125 506.578125 431.1875 508.382812 430.613281 510.191406 C 429.890625 512.441406 429.175781 514.691406 428.605469 516.996094 C 428.136719 518.847656 427.796875 520.730469 427.433594 522.605469 C 427.167969 524.035156 426.761719 525.414062 426.554688 526.859375 C 408.671875 536.175781 389.644531 543.085938 369.953125 547.417969 Z M 584.734375 608.847656 L 584.734375 531.867188 C 584.734375 527.84375 582.46875 524.171875 578.882812 522.363281 L 536.382812 501.117188 C 533.398438 499.628906 529.890625 499.628906 526.902344 501.117188 L 484.402344 522.363281 C 480.789062 524.152344 478.496094 527.832031 478.488281 531.867188 L 478.488281 608.847656 C 458.269531 592.773438 446.523438 568.324219 446.613281 542.488281 C 446.597656 539.867188 446.722656 537.246094 446.996094 534.640625 C 447.324219 531.011719 447.894531 527.417969 448.699219 523.863281 C 454.375 498.878906 470.96875 477.761719 493.902344 466.34375 C 504.597656 460.992188 516.320312 457.996094 528.273438 457.566406 C 529.179688 457.503906 530.070312 457.496094 530.964844 457.496094 C 540.945312 457.421875 550.859375 459.109375 560.257812 462.476562 C 563.367188 463.589844 566.40625 464.886719 569.359375 466.363281 C 611.417969 487.222656 628.601562 538.21875 607.746094 580.277344 C 602.246094 591.363281 594.394531 601.117188 584.734375 608.847656 Z M 584.734375 608.847656 " style=" stroke:none;fill-rule:nonzero;fill:rgb(0%,0%,0%);fill-opacity:1;" />
<path d="M 319.117188 223.746094 C 266.304688 223.746094 223.492188 266.558594 223.492188 319.371094 C 223.492188 372.179688 266.304688 414.988281 319.117188 414.988281 C 371.929688 414.988281 414.742188 372.179688 414.742188 319.371094 C 414.683594 266.582031 371.902344 223.804688 319.117188 223.746094 Z M 319.117188 393.742188 C 278.039062 393.742188 244.742188 360.441406 244.742188 319.371094 C 244.742188 278.292969 278.039062 244.996094 319.117188 244.996094 C 360.195312 244.996094 393.488281 278.292969 393.488281 319.371094 C 393.433594 360.421875 360.167969 393.6875 319.117188 393.742188 Z M 319.117188 393.742188 " style=" stroke:none;fill-rule:nonzero;fill:rgb(0%,0%,0%);fill-opacity:1;" />
</g>
</svg>