<svg xmlns="http://www.w3.org/2000/svg" height="640pt" version="1.1" viewBox="0 0 640 640" width="640pt">
<g id="surface1">
<path d="M 330.667969 426.664062 L 302.648438 426.664062 C 300.386719 419.601562 297.554688 412.734375 294.175781 406.132812 L 313.992188 386.3125 C 318.160156 382.148438 318.160156 375.394531 313.992188 371.230469 L 268.769531 326.007812 C 264.601562 321.839844 257.851562 321.839844 253.6875 326.007812 L 233.867188 345.824219 C 227.265625 342.445312 220.398438 339.613281 213.335938 337.351562 L 213.335938 309.332031 C 213.335938 303.441406 208.558594 298.667969 202.664062 298.667969 L 138.667969 298.667969 C 132.777344 298.667969 128 303.441406 128 309.332031 L 128 337.351562 C 120.9375 339.613281 114.066406 342.445312 107.464844 345.824219 L 87.652344 326.007812 C 83.480469 321.839844 76.734375 321.839844 72.570312 326.007812 L 27.339844 371.203125 C 23.171875 375.367188 23.171875 382.117188 27.339844 386.285156 L 47.15625 406.097656 C 43.773438 412.714844 40.941406 419.589844 38.6875 426.664062 L 10.664062 426.664062 C 4.773438 426.664062 0 431.441406 0 437.335938 L 0 501.332031 C 0 507.222656 4.773438 512 10.667969 512 L 38.6875 512 C 40.945312 519.0625 43.78125 525.933594 47.15625 532.535156 L 27.339844 552.347656 C 23.171875 556.519531 23.171875 563.265625 27.339844 567.429688 L 72.5625 612.660156 C 76.734375 616.820312 83.480469 616.820312 87.648438 612.660156 L 107.464844 592.84375 C 114.066406 596.21875 120.9375 599.054688 128 601.308594 L 128 629.332031 C 128 635.226562 132.773438 640 138.667969 640 L 202.664062 640 C 208.558594 640 213.335938 635.226562 213.335938 629.332031 L 213.335938 601.308594 C 220.394531 599.054688 227.265625 596.21875 233.867188 592.84375 L 253.6875 612.660156 C 257.851562 616.820312 264.601562 616.820312 268.765625 612.660156 L 313.992188 567.429688 C 318.160156 563.265625 318.160156 556.515625 313.992188 552.347656 L 294.175781 532.535156 C 297.554688 525.933594 300.386719 519.0625 302.640625 512 L 330.664062 512 C 336.558594 512 341.332031 507.222656 341.332031 501.332031 L 341.332031 437.335938 C 341.332031 431.441406 336.558594 426.664062 330.667969 426.664062 Z M 320 490.664062 L 294.613281 490.664062 C 289.734375 490.664062 285.484375 493.976562 284.277344 498.695312 C 281.582031 509.328125 277.378906 519.515625 271.789062 528.949219 C 269.296875 533.144531 269.964844 538.492188 273.417969 541.9375 L 291.371094 559.890625 L 261.226562 590.035156 L 243.277344 572.085938 C 239.828125 568.632812 234.476562 567.964844 230.28125 570.453125 C 220.851562 576.046875 210.660156 580.25 200.035156 582.945312 C 195.308594 584.144531 192 588.402344 192 593.277344 L 192 618.667969 L 149.335938 618.667969 L 149.335938 593.277344 C 149.335938 588.402344 146.023438 584.144531 141.304688 582.945312 C 130.671875 580.25 120.484375 576.046875 111.050781 570.453125 C 106.855469 567.964844 101.507812 568.632812 98.0625 572.085938 L 80.109375 590.035156 L 49.964844 559.890625 L 67.914062 541.9375 C 71.367188 538.492188 72.035156 533.144531 69.546875 528.949219 C 63.953125 519.515625 59.75 509.328125 57.054688 498.695312 C 55.855469 493.976562 51.597656 490.664062 46.722656 490.664062 L 21.332031 490.664062 L 21.332031 448 L 46.71875 448 C 51.597656 448 55.855469 444.691406 57.054688 439.964844 C 59.75 429.335938 63.953125 419.148438 69.546875 409.71875 C 72.035156 405.523438 71.367188 400.171875 67.914062 396.722656 L 49.960938 378.773438 L 80.109375 348.628906 L 98.054688 366.582031 C 101.503906 370.035156 106.855469 370.703125 111.050781 368.210938 C 120.484375 362.621094 130.671875 358.417969 141.296875 355.722656 C 146.023438 354.515625 149.332031 350.265625 149.332031 345.386719 L 149.332031 320 L 192 320 L 192 345.386719 C 192 350.265625 195.308594 354.515625 200.03125 355.722656 C 210.660156 358.417969 220.851562 362.621094 230.28125 368.210938 C 234.476562 370.703125 239.824219 370.035156 243.273438 366.582031 L 261.226562 348.628906 L 291.367188 378.773438 L 273.417969 396.722656 C 269.964844 400.171875 269.296875 405.523438 271.789062 409.71875 C 277.378906 419.148438 281.582031 429.339844 284.277344 439.964844 C 285.476562 444.691406 289.734375 448 294.613281 448 L 320 448 Z M 320 490.664062 " style=" stroke:none;fill-rule:nonzero;fill:rgb(0%,0%,0%);fill-opacity:1;" />
<path d="M 170.664062 384 C 123.539062 384 85.332031 422.207031 85.332031 469.335938 C 85.332031 516.460938 123.539062 554.667969 170.664062 554.667969 C 217.792969 554.667969 256 516.460938 256 469.335938 C 255.945312 422.226562 217.773438 384.054688 170.664062 384 Z M 170.664062 533.335938 C 135.316406 533.335938 106.664062 504.679688 106.664062 469.332031 C 106.664062 433.984375 135.316406 405.332031 170.664062 405.332031 C 206.011719 405.332031 234.667969 433.984375 234.667969 469.332031 C 234.628906 504.664062 205.996094 533.296875 170.664062 533.335938 Z M 170.664062 533.335938 " style=" stroke:none;fill-rule:nonzero;fill:rgb(0%,0%,0%);fill-opacity:1;" />
<path d="M 629.332031 309.332031 L 604.351562 309.332031 L 622.027344 291.722656 C 626.195312 287.5625 626.207031 280.8125 622.046875 276.640625 C 622.039062 276.632812 622.03125 276.625 622.027344 276.621094 L 576.695312 231.285156 C 574.691406 229.289062 571.984375 228.164062 569.148438 228.160156 C 566.320312 228.164062 563.597656 229.296875 561.601562 231.308594 L 544 248.980469 L 544 224 C 544 218.109375 539.222656 213.335938 533.335938 213.335938 L 469.335938 213.335938 C 463.441406 213.335938 458.667969 218.109375 458.667969 224 L 458.667969 248.980469 L 441.054688 231.308594 C 439.058594 229.296875 436.34375 228.164062 433.507812 228.160156 C 430.679688 228.164062 427.964844 229.289062 425.960938 231.285156 L 380.628906 276.621094 C 376.460938 280.78125 376.449219 287.535156 380.609375 291.703125 C 380.621094 291.710938 380.625 291.71875 380.628906 291.722656 L 398.316406 309.332031 L 373.335938 309.332031 C 367.445312 309.332031 362.671875 314.109375 362.671875 320 L 362.671875 384 C 362.671875 389.890625 367.445312 394.667969 373.335938 394.667969 L 398.316406 394.667969 L 380.644531 412.273438 C 376.46875 416.4375 376.464844 423.195312 380.625 427.363281 C 380.628906 427.367188 380.632812 427.375 380.644531 427.382812 L 425.976562 472.714844 C 427.988281 474.703125 430.699219 475.820312 433.523438 475.839844 C 436.371094 475.820312 439.085938 474.667969 441.078125 472.640625 L 458.667969 455.019531 L 458.667969 480 C 458.667969 485.890625 463.441406 490.664062 469.335938 490.664062 L 533.335938 490.664062 C 539.226562 490.664062 544.003906 485.890625 544.003906 480 L 544.003906 455.019531 L 561.609375 472.691406 C 563.601562 474.722656 566.324219 475.875 569.164062 475.894531 C 572.023438 476.039062 574.800781 474.890625 576.714844 472.769531 L 622.050781 427.429688 C 626.21875 423.273438 626.226562 416.519531 622.066406 412.347656 C 622.0625 412.34375 622.054688 412.339844 622.050781 412.328125 L 604.351562 394.667969 L 629.332031 394.667969 C 635.226562 394.667969 640 389.890625 640 384 L 640 320 C 640 314.109375 635.226562 309.332031 629.332031 309.332031 Z M 618.667969 373.335938 L 591.789062 373.335938 C 587.195312 373.328125 583.121094 376.265625 581.664062 380.621094 C 580.78125 383.355469 579.710938 386.03125 578.460938 388.617188 C 576.410156 392.730469 577.222656 397.695312 580.476562 400.9375 L 599.457031 419.847656 L 569.238281 450.070312 L 550.328125 431.09375 C 547.078125 427.835938 542.117188 427.023438 538.007812 429.078125 C 535.414062 430.328125 532.742188 431.398438 530.003906 432.273438 C 525.617188 433.71875 522.652344 437.828125 522.664062 442.453125 L 522.664062 469.332031 L 480 469.332031 L 480 442.453125 C 480.003906 437.859375 477.070312 433.785156 472.714844 432.328125 C 469.980469 431.449219 467.304688 430.382812 464.71875 429.132812 C 460.609375 427.054688 455.628906 427.871094 452.398438 431.148438 L 433.484375 450.121094 L 403.265625 419.902344 L 422.242188 400.992188 C 425.5 397.75 426.3125 392.78125 424.257812 388.671875 C 423.007812 386.078125 421.9375 383.40625 421.058594 380.671875 C 419.613281 376.28125 415.507812 373.316406 410.882812 373.335938 L 384.003906 373.335938 L 384.003906 330.667969 L 410.882812 330.667969 C 415.472656 330.667969 419.550781 327.734375 421.007812 323.382812 C 421.882812 320.644531 422.960938 317.972656 424.203125 315.382812 C 426.257812 311.269531 425.445312 306.304688 422.1875 303.0625 L 403.210938 284.148438 L 433.433594 253.929688 L 452.34375 272.90625 C 455.585938 276.164062 460.550781 276.976562 464.664062 274.921875 C 467.257812 273.671875 469.925781 272.601562 472.660156 271.722656 C 477.054688 270.277344 480.019531 266.171875 480 261.546875 L 480 234.667969 L 522.664062 234.667969 L 522.664062 261.546875 C 522.664062 266.136719 525.601562 270.214844 529.953125 271.671875 C 532.691406 272.554688 535.359375 273.625 537.953125 274.867188 C 542.066406 276.921875 547.03125 276.109375 550.273438 272.851562 L 569.183594 253.875 L 599.40625 284.097656 L 580.425781 303.007812 C 577.171875 306.253906 576.359375 311.214844 578.40625 315.328125 C 579.65625 317.921875 580.726562 320.589844 581.609375 323.328125 C 583.050781 327.726562 587.164062 330.683594 591.789062 330.667969 L 618.667969 330.667969 Z M 618.667969 373.335938 " style=" stroke:none;fill-rule:nonzero;fill:rgb(0%,0%,0%);fill-opacity:1;" />
<path d="M 501.332031 288 C 465.984375 288 437.335938 316.65625 437.335938 352 C 437.335938 387.347656 465.984375 416 501.332031 416 C 536.679688 416 565.332031 387.347656 565.332031 352 C 565.296875 316.671875 536.664062 288.039062 501.332031 288 Z M 501.332031 394.667969 C 477.769531 394.667969 458.667969 375.566406 458.667969 352 C 458.667969 328.4375 477.769531 309.332031 501.332031 309.332031 C 524.898438 309.332031 544 328.4375 544 352 C 544 375.566406 524.898438 394.667969 501.332031 394.667969 Z M 501.332031 394.667969 " style=" stroke:none;fill-rule:nonzero;fill:rgb(0%,0%,0%);fill-opacity:1;" />
<path d="M 160 149.332031 L 187.539062 149.332031 L 188.105469 150.699219 L 168.53125 170.15625 C 164.367188 174.316406 164.359375 181.070312 168.523438 185.238281 C 168.523438 185.242188 168.53125 185.242188 168.53125 185.25 L 198.71875 215.433594 C 202.886719 219.601562 209.640625 219.601562 213.804688 215.433594 L 233.320312 195.914062 L 234.632812 196.460938 L 234.632812 224 C 234.632812 229.890625 239.410156 234.667969 245.304688 234.667969 L 287.96875 234.667969 C 293.859375 234.667969 298.632812 229.890625 298.632812 224 L 298.632812 196.460938 L 299.945312 195.914062 L 319.46875 215.433594 C 323.632812 219.601562 330.386719 219.601562 334.550781 215.433594 L 364.734375 185.25 C 368.902344 181.085938 368.90625 174.332031 364.746094 170.160156 C 364.742188 170.160156 364.734375 170.15625 364.734375 170.15625 L 345.203125 150.699219 L 345.789062 149.332031 L 373.335938 149.332031 C 379.222656 149.332031 384 144.554688 384 138.667969 L 384 96 C 384 90.109375 379.222656 85.332031 373.335938 85.332031 L 345.789062 85.332031 C 345.617188 84.886719 345.433594 84.449219 345.25 84.023438 L 364.765625 64.5 C 368.929688 60.335938 368.929688 53.585938 364.765625 49.417969 L 334.578125 19.199219 C 332.582031 17.203125 329.867188 16.074219 327.039062 16.074219 C 324.210938 16.078125 321.492188 17.207031 319.496094 19.210938 L 300.035156 38.773438 L 298.667969 38.207031 L 298.667969 10.667969 C 298.667969 4.773438 293.890625 0 288 0 L 245.332031 0 C 239.445312 0 234.667969 4.773438 234.667969 10.667969 L 234.667969 38.207031 L 233.300781 38.773438 L 213.84375 19.199219 C 211.84375 17.195312 209.136719 16.070312 206.304688 16.0625 C 203.476562 16.0625 200.761719 17.1875 198.765625 19.1875 L 168.53125 49.417969 C 164.371094 53.585938 164.371094 60.335938 168.53125 64.5 L 188.050781 84.023438 C 187.875 84.449219 187.695312 84.886719 187.507812 85.332031 L 160 85.332031 C 154.105469 85.332031 149.332031 90.109375 149.332031 96 L 149.332031 138.667969 C 149.332031 144.554688 154.105469 149.332031 160 149.332031 Z M 170.664062 106.664062 L 195.09375 106.664062 C 199.785156 106.671875 203.929688 103.601562 205.304688 99.117188 C 206.554688 94.890625 208.234375 90.8125 210.3125 86.933594 C 212.585938 82.777344 211.851562 77.621094 208.5 74.273438 L 191.1875 56.957031 L 206.269531 41.867188 L 223.484375 59.144531 C 226.910156 62.457031 232.070312 63.199219 236.289062 60.980469 C 240.164062 58.898438 244.25 57.21875 248.46875 55.96875 C 252.949219 54.589844 256.007812 50.449219 256 45.761719 L 256 21.332031 L 277.335938 21.332031 L 277.335938 45.761719 C 277.328125 50.453125 280.394531 54.601562 284.882812 55.96875 C 289.105469 57.21875 293.1875 58.898438 297.066406 60.980469 C 301.28125 63.199219 306.441406 62.457031 309.867188 59.144531 L 327.078125 41.867188 L 342.144531 56.957031 L 324.828125 74.273438 C 321.484375 77.621094 320.742188 82.777344 323.015625 86.933594 C 325.101562 90.8125 326.78125 94.890625 328.03125 99.117188 C 329.398438 103.601562 333.546875 106.671875 338.238281 106.664062 L 362.664062 106.664062 L 362.664062 128 L 338.238281 128 C 333.546875 128 329.398438 131.0625 328.03125 135.550781 C 326.78125 139.773438 325.101562 143.859375 323.015625 147.734375 C 322.15625 149.339844 321.710938 151.136719 321.703125 152.960938 C 321.722656 155.804688 322.875 158.519531 324.90625 160.511719 L 342.1875 177.730469 L 327.039062 192.8125 L 309.726562 175.5 C 306.375 172.148438 301.21875 171.410156 297.066406 173.6875 C 293.1875 175.765625 289.105469 177.445312 284.882812 178.695312 C 280.394531 180.070312 277.328125 184.214844 277.335938 188.90625 L 277.335938 213.335938 L 256 213.335938 L 256 188.90625 C 256 184.214844 252.933594 180.070312 248.445312 178.695312 C 244.222656 177.445312 240.148438 175.765625 236.265625 173.6875 C 232.109375 171.410156 226.953125 172.148438 223.601562 175.5 L 206.292969 192.8125 L 191.203125 177.730469 L 208.480469 160.511719 C 210.5 158.476562 211.632812 155.722656 211.625 152.851562 C 211.625 151.0625 211.175781 149.300781 210.3125 147.734375 C 208.234375 143.859375 206.554688 139.773438 205.304688 135.550781 C 203.929688 131.0625 199.785156 128 195.09375 128 L 170.664062 128 Z M 170.664062 106.664062 " style=" stroke:none;fill-rule:nonzero;fill:rgb(0%,0%,0%);fill-opacity:1;" />
<path d="M 266.664062 160 C 290.230469 160 309.332031 140.898438 309.332031 117.335938 C 309.332031 93.769531 290.230469 74.667969 266.664062 74.667969 C 243.101562 74.667969 224 93.769531 224 117.335938 C 224 140.898438 243.101562 160 266.664062 160 Z M 266.664062 96 C 278.445312 96 288 105.550781 288 117.335938 C 288 129.117188 278.445312 138.667969 266.664062 138.667969 C 254.882812 138.667969 245.332031 129.117188 245.332031 117.335938 C 245.332031 105.550781 254.882812 96 266.664062 96 Z M 266.664062 96 " style=" stroke:none;fill-rule:nonzero;fill:rgb(0%,0%,0%);fill-opacity:1;" />
</g>
</svg>