<svg xmlns="http://www.w3.org/2000/svg" height="640pt" version="1.1" viewBox="0 -11 640.00001 640" width="640pt">
<g id="surface1">
<path d="M 421.332031 167.65625 L 506.664062 216.925781 C 509.96875 218.820312 514.027344 218.820312 517.332031 216.925781 L 602.664062 167.65625 C 605.964844 165.753906 607.996094 162.234375 607.996094 158.417969 L 607.996094 59.878906 C 607.996094 56.070312 605.964844 52.550781 602.664062 50.640625 L 517.332031 1.417969 C 514.027344 -0.472656 509.96875 -0.472656 506.664062 1.417969 L 421.332031 50.683594 C 418.03125 52.589844 416 56.113281 416 59.921875 L 416 158.464844 C 416.015625 162.257812 418.046875 165.757812 421.332031 167.65625 Z M 437.332031 66.035156 L 512 22.929688 L 586.667969 66.035156 L 586.667969 152.265625 L 512 195.367188 L 437.332031 152.265625 Z M 437.332031 66.035156 " style=" stroke:none;fill-rule:nonzero;fill:rgb(0%,0%,0%);fill-opacity:1;" />
<path d="M 634.667969 394.835938 L 517.332031 327.089844 C 514.03125 325.1875 509.964844 325.1875 506.664062 327.089844 L 389.332031 394.835938 C 386.03125 396.738281 384 400.265625 384 404.074219 L 384 539.542969 C 384 543.351562 386.03125 546.871094 389.332031 548.777344 L 506.664062 616.519531 C 509.964844 618.429688 514.03125 618.429688 517.332031 616.519531 L 634.667969 548.777344 C 637.96875 546.871094 640 543.351562 640 539.542969 L 640 404.074219 C 640 400.265625 637.96875 396.738281 634.667969 394.835938 Z M 618.667969 533.394531 L 512 594.996094 L 405.332031 533.394531 L 405.332031 410.242188 L 512 348.640625 L 618.667969 410.242188 Z M 618.667969 533.394531 " style=" stroke:none;fill-rule:nonzero;fill:rgb(0%,0%,0%);fill-opacity:1;" />
<path d="M 437.332031 471.816406 C 437.332031 513.054688 470.761719 546.484375 512 546.484375 C 553.238281 546.484375 586.667969 513.058594 586.667969 471.816406 C 586.667969 430.578125 553.238281 397.148438 512 397.148438 C 470.785156 397.203125 437.386719 430.601562 437.332031 471.816406 Z M 565.332031 471.816406 C 565.332031 501.269531 541.453125 525.152344 512 525.152344 C 482.542969 525.152344 458.667969 501.277344 458.667969 471.816406 C 458.667969 442.363281 482.542969 418.484375 512 418.484375 C 541.441406 418.515625 565.296875 442.378906 565.332031 471.816406 Z M 565.332031 471.816406 " style=" stroke:none;fill-rule:nonzero;fill:rgb(0%,0%,0%);fill-opacity:1;" />
<path d="M 565.332031 109.152344 C 565.332031 79.695312 541.453125 55.816406 512 55.816406 C 482.542969 55.816406 458.667969 79.695312 458.667969 109.152344 C 458.667969 138.605469 482.542969 162.488281 512 162.488281 C 541.441406 162.449219 565.296875 138.589844 565.332031 109.152344 Z M 480 109.152344 C 480 91.476562 494.324219 77.148438 512 77.148438 C 529.671875 77.148438 544 91.476562 544 109.152344 C 544 126.824219 529.671875 141.152344 512 141.152344 C 494.324219 141.152344 480 126.824219 480 109.152344 Z M 480 109.152344 " style=" stroke:none;fill-rule:nonzero;fill:rgb(0%,0%,0%);fill-opacity:1;" />
<path d="M 384 132.457031 C 384.003906 128.644531 381.972656 125.117188 378.667969 123.210938 L 197.335938 18.484375 C 194.035156 16.578125 189.964844 16.578125 186.664062 18.484375 L 5.332031 123.164062 C 2.03125 125.074219 -0.00390625 128.601562 0 132.414062 L 0 341.804688 C -0.00390625 345.617188 2.03125 349.140625 5.332031 351.050781 L 186.664062 455.734375 C 189.964844 457.636719 194.035156 457.636719 197.335938 455.734375 L 378.667969 351.050781 C 381.972656 349.140625 384.003906 345.617188 384 341.804688 Z M 362.664062 335.691406 L 192.003906 434.230469 L 21.332031 335.691406 L 21.332031 138.613281 L 192.003906 40.074219 L 362.664062 138.613281 Z M 362.664062 335.691406 " style=" stroke:none;fill-rule:nonzero;fill:rgb(0%,0%,0%);fill-opacity:1;" />
<path d="M 85.332031 237.148438 C 85.332031 296.0625 133.089844 343.820312 192.003906 343.820312 C 250.914062 343.820312 298.667969 296.0625 298.667969 237.148438 C 298.667969 178.238281 250.914062 130.484375 192.003906 130.484375 C 133.117188 130.546875 85.402344 178.269531 85.332031 237.148438 Z M 277.332031 237.148438 C 277.332031 284.277344 239.125 322.480469 192.003906 322.480469 C 144.875 322.480469 106.664062 284.277344 106.664062 237.148438 C 106.664062 190.019531 144.875 151.816406 192.003906 151.816406 C 239.105469 151.871094 277.28125 190.046875 277.332031 237.148438 Z M 277.332031 237.148438 " style=" stroke:none;fill-rule:nonzero;fill:rgb(0%,0%,0%);fill-opacity:1;" />
</g>
</svg>